<svg width="176" height="144" viewBox="0 0 176 144" fill="none" xmlns="http://www.w3.org/2000/svg">
<g clip-path="url(#clip0_7_1485)">
<path d="M155.132 8.74745H0.243255C0.178248 8.74604 0.116391 8.71982 0.070926 8.67441C0.0254608 8.62899 0 8.56799 0 8.50446C0 8.44094 0.0254608 8.37993 0.070926 8.33452C0.116391 8.2891 0.178248 8.26288 0.243255 8.26147H155.132C155.197 8.26288 155.259 8.2891 155.304 8.33452C155.35 8.37993 155.375 8.44094 155.375 8.50446C155.375 8.56799 155.35 8.62899 155.304 8.67441C155.259 8.71982 155.197 8.74604 155.132 8.74745Z" fill="#CACACA"/>
<path d="M5.71915 5.34572C7.19716 5.34572 8.39533 4.14904 8.39533 2.67286C8.39533 1.19668 7.19716 0 5.71915 0C4.24114 0 3.04297 1.19668 3.04297 2.67286C3.04297 4.14904 4.24114 5.34572 5.71915 5.34572Z" fill="#3F3D56"/>
<path d="M14.9641 5.34572C16.4422 5.34572 17.6403 4.14904 17.6403 2.67286C17.6403 1.19668 16.4422 0 14.9641 0C13.4861 0 12.288 1.19668 12.288 2.67286C12.288 4.14904 13.4861 5.34572 14.9641 5.34572Z" fill="#3F3D56"/>
<path d="M24.2091 5.34572C25.6872 5.34572 26.8853 4.14904 26.8853 2.67286C26.8853 1.19668 25.6872 0 24.2091 0C22.7311 0 21.533 1.19668 21.533 2.67286C21.533 4.14904 22.7311 5.34572 24.2091 5.34572Z" fill="#3F3D56"/>
<path d="M149.592 0.662476H143.025C142.895 0.665 142.771 0.717293 142.679 0.808125C142.588 0.898957 142.537 1.02108 142.537 1.14828C142.537 1.27548 142.588 1.39761 142.679 1.48844C142.771 1.57927 142.895 1.63157 143.025 1.63409H149.592C149.722 1.63157 149.846 1.57927 149.937 1.48844C150.028 1.39761 150.079 1.27548 150.079 1.14828C150.079 1.02108 150.028 0.898957 149.937 0.808125C149.846 0.717293 149.722 0.665 149.592 0.662476Z" fill="#3F3D56"/>
<path d="M149.592 2.48608H143.025C142.895 2.48861 142.771 2.5409 142.679 2.63173C142.588 2.72257 142.537 2.8447 142.537 2.9719C142.537 3.0991 142.588 3.22122 142.679 3.31205C142.771 3.40289 142.895 3.45518 143.025 3.4577H149.592C149.722 3.45518 149.846 3.40289 149.937 3.31205C150.028 3.22122 150.079 3.0991 150.079 2.9719C150.079 2.8447 150.028 2.72257 149.937 2.63173C149.846 2.5409 149.722 2.48861 149.592 2.48608Z" fill="#3F3D56"/>
<path d="M149.592 4.30725H143.025C142.895 4.30978 142.771 4.36207 142.679 4.4529C142.588 4.54373 142.537 4.66586 142.537 4.79306C142.537 4.92026 142.588 5.04239 142.679 5.13322C142.771 5.22405 142.895 5.27634 143.025 5.27887H149.592C149.722 5.27634 149.846 5.22405 149.937 5.13322C150.028 5.04239 150.079 4.92026 150.079 4.79306C150.079 4.66586 150.028 4.54373 149.937 4.4529C149.846 4.36207 149.722 4.30978 149.592 4.30725Z" fill="#3F3D56"/>
<path d="M147.14 16.9521H6.06213C5.28095 16.9533 4.5321 17.257 3.97973 17.7966C3.42736 18.3363 3.11652 19.0679 3.11536 19.8311V20.2954C3.11652 21.0586 3.42736 21.7902 3.97973 22.3298C4.5321 22.8695 5.28095 23.1732 6.06213 23.1743H147.14C147.921 23.1732 148.67 22.8695 149.222 22.3298C149.774 21.7902 150.085 21.0586 150.086 20.2954V19.8311C150.085 19.0679 149.774 18.3363 149.222 17.7966C148.67 17.257 147.921 16.9533 147.14 16.9521Z" fill="#F0F0F0"/>
<path d="M23.0875 21.2119H9.65857C9.35811 21.2115 9.0701 21.0946 8.85779 20.8868C8.64549 20.6791 8.52625 20.3976 8.52625 20.104C8.52625 19.8105 8.64549 19.5289 8.85779 19.3212C9.0701 19.1134 9.35811 18.9965 9.65857 18.9961H23.0875C24.55 18.9762 24.5646 21.232 23.0875 21.2119Z" fill="white"/>
<path d="M63.2595 21.2119H49.8306C49.5301 21.2115 49.2421 21.0946 49.0298 20.8868C48.8175 20.6791 48.6982 20.3976 48.6982 20.104C48.6982 19.8105 48.8175 19.5289 49.0298 19.3212C49.2421 19.1134 49.5301 18.9965 49.8306 18.9961H63.2595C64.722 18.9762 64.7366 21.232 63.2595 21.2119Z" fill="white"/>
<path d="M103.432 21.2119H90.0027C89.7022 21.2115 89.4142 21.0946 89.2019 20.8868C88.9896 20.6791 88.8704 20.3976 88.8704 20.104C88.8704 19.8105 88.9896 19.5289 89.2019 19.3212C89.4142 19.1134 89.7022 18.9965 90.0027 18.9961H103.432C104.894 18.9762 104.909 21.232 103.432 21.2119Z" fill="white"/>
<path d="M141.522 21.3315H128.093C127.792 21.3315 127.503 21.2148 127.291 21.007C127.078 20.7993 126.959 20.5175 126.959 20.2236C126.959 19.9298 127.078 19.648 127.291 19.4402C127.503 19.2325 127.792 19.1157 128.093 19.1157H141.522C142.984 19.0958 142.999 21.3517 141.522 21.3315Z" fill="#81C9C0"/>
<path d="M120.57 16.9521H120.08V23.1743H120.57V16.9521Z" fill="white"/>
<path d="M69.8757 109.043H12.299C11.786 109.043 11.2942 108.843 10.9314 108.489C10.5687 108.135 10.3646 107.654 10.364 107.153V98.9144C10.3646 98.4132 10.5687 97.9326 10.9314 97.5782C11.2942 97.2238 11.786 97.0244 12.299 97.0239H69.8757C70.3887 97.0244 70.8806 97.2238 71.2433 97.5782C71.6061 97.9326 71.8101 98.4132 71.8107 98.9144V107.153C71.8101 107.654 71.6061 108.135 71.2433 108.489C70.8806 108.843 70.3887 109.043 69.8757 109.043Z" fill="#F0F0F0"/>
<path d="M64.2814 107.768H13.6046C13.0916 107.768 12.5997 107.568 12.237 107.214C11.8742 106.859 11.6701 106.379 11.6696 105.878V100.191C11.6701 99.6893 11.8742 99.2088 12.237 98.8544C12.5997 98.5 13.0916 98.3006 13.6046 98.3H68.5705C69.0835 98.3006 69.5754 98.5 69.9381 98.8544C70.3009 99.2088 70.505 99.6893 70.5055 100.191V101.687C70.5037 103.3 69.8473 104.845 68.6805 105.985C67.5137 107.125 65.9316 107.766 64.2814 107.768Z" fill="white"/>
<path d="M46.8009 102.448H23.6594C23.5271 102.448 23.4002 102.396 23.3066 102.305C23.213 102.213 23.1604 102.089 23.1604 101.96C23.1604 101.831 23.213 101.707 23.3066 101.615C23.4002 101.524 23.5271 101.472 23.6594 101.472H46.8009C46.9332 101.472 47.0602 101.524 47.1538 101.615C47.2474 101.707 47.2999 101.831 47.2999 101.96C47.2999 102.089 47.2474 102.213 47.1538 102.305C47.0602 102.396 46.9332 102.448 46.8009 102.448Z" fill="#E6E6E6"/>
<path d="M58.5155 104.442H23.6595C23.5938 104.442 23.5288 104.429 23.4681 104.405C23.4075 104.38 23.3523 104.345 23.3059 104.299C23.2594 104.254 23.2225 104.2 23.1974 104.141C23.1722 104.082 23.1593 104.018 23.1593 103.954C23.1593 103.89 23.1722 103.827 23.1974 103.767C23.2225 103.708 23.2594 103.654 23.3059 103.609C23.3523 103.564 23.4075 103.528 23.4681 103.503C23.5288 103.479 23.5938 103.466 23.6595 103.467H58.5155C58.6476 103.467 58.7743 103.518 58.8676 103.61C58.961 103.701 59.0134 103.825 59.0134 103.954C59.0134 104.083 58.961 104.207 58.8676 104.298C58.7743 104.39 58.6476 104.441 58.5155 104.442Z" fill="#E6E6E6"/>
<path d="M73.5536 87.5978H7.90409C7.38024 87.5972 6.87802 87.3936 6.5076 87.0317C6.13718 86.6698 5.92882 86.1792 5.92822 85.6674V36.6396C5.92882 36.1278 6.13719 35.6371 6.50761 35.2752C6.87803 34.9133 7.38025 34.7098 7.90409 34.7092H73.5536C74.0775 34.7098 74.5797 34.9133 74.9501 35.2752C75.3205 35.6371 75.5289 36.1278 75.5295 36.6396V85.6674C75.5289 86.1792 75.3205 86.6698 74.9501 87.0317C74.5797 87.3936 74.0775 87.5972 73.5536 87.5978Z" fill="white"/>
<path d="M73.5536 87.8372H7.90418C7.31539 87.8365 6.75092 87.6077 6.33458 87.2009C5.91824 86.7942 5.68404 86.2427 5.68335 85.6674V36.6396C5.68404 36.0643 5.91824 35.5129 6.33459 35.1061C6.75093 34.6994 7.3154 34.4706 7.90418 34.47H73.5536C74.1424 34.4706 74.7069 34.6994 75.1232 35.1061C75.5396 35.5129 75.7738 36.0643 75.7745 36.6396V85.6674C75.7738 86.2427 75.5396 86.7942 75.1232 87.2009C74.7069 87.6077 74.1424 87.8365 73.5536 87.8372ZM7.90418 34.9486C7.44529 34.9491 7.00533 35.1274 6.68084 35.4444C6.35634 35.7614 6.17379 36.1913 6.17325 36.6396V85.6674C6.17377 86.1158 6.3563 86.5456 6.6808 86.8626C7.0053 87.1797 7.44527 87.358 7.90418 87.3585H73.5536C74.0126 87.358 74.4525 87.1797 74.777 86.8626C75.1015 86.5456 75.284 86.1158 75.2846 85.6674V36.6396C75.284 36.1912 75.1015 35.7614 74.777 35.4444C74.4525 35.1274 74.0125 34.9491 73.5536 34.9486L7.90418 34.9486Z" fill="#F0F0F0"/>
<path d="M6.07983 78.2645V85.6674C6.08056 86.1399 6.27298 86.5928 6.61493 86.9269C6.95687 87.261 7.42045 87.4489 7.90403 87.4496H73.5536C74.0372 87.4489 74.5008 87.261 74.8428 86.9269C75.1847 86.5928 75.3771 86.1399 75.3778 85.6674V78.2645H6.07983Z" fill="#F0F0F0"/>
<path d="M6.69855 35.0216L6.43445 35.4246L75.2458 78.466L75.51 78.063L6.69855 35.0216Z" fill="#F0F0F0"/>
<path d="M75.4401 35.0216L6.62866 78.063L6.89277 78.466L75.7042 35.4246L75.4401 35.0216Z" fill="#F0F0F0"/>
<path d="M133.588 140.666L130.553 140.666L129.109 129.229L133.588 129.23L133.588 140.666Z" fill="#A0616A"/>
<path d="M133.507 139.697L130.269 138.412L130.173 138.374L128.385 139.697C127.404 139.697 126.46 140.067 125.752 140.73C125.043 141.393 124.623 142.298 124.581 143.256C124.576 143.309 124.576 143.364 124.576 143.419V143.541H134.362V139.697H133.507Z" fill="#2F2E41"/>
<path d="M126.48 137.907L123.617 138.891L118.37 128.571L122.595 127.118L126.48 137.907Z" fill="#A0616A"/>
<path d="M126.075 137.019L122.584 136.857L122.481 136.852L121.243 138.68C120.318 138.998 119.553 139.653 119.11 140.508C118.667 141.364 118.579 142.353 118.864 143.27C118.877 143.322 118.896 143.374 118.915 143.426L118.956 143.541L128.187 140.367L126.881 136.742L126.075 137.019Z" fill="#2F2E41"/>
<path d="M134.66 91.3535C137.437 91.2483 133.997 112.865 133.997 112.865C133.997 112.865 135.003 131.844 134.79 132.84C134.577 133.836 134.763 136.523 134.763 136.523C134.219 135.555 128.607 136.285 128.607 136.285L127.844 117.05L123.946 101.638L118.541 111.969L123.721 127.826C123.721 127.826 125.819 129.723 125.596 130.472C125.373 131.221 119.878 132.911 118.869 132.95C117.859 132.988 118.315 131.736 118.266 130.503C118.217 129.27 113.466 117.842 111.795 113.954C110.124 110.065 111.423 104.583 112.276 100.599C113.129 96.6148 117.617 89.1383 117.617 89.1383C123.187 82.9998 131.884 91.4587 134.66 91.3535Z" fill="#2F2E41"/>
<path d="M100.823 73.884C100.975 74.1679 101.189 74.4158 101.45 74.6101C101.711 74.8045 102.012 74.9407 102.332 75.009C102.653 75.0774 102.985 75.0762 103.305 75.0057C103.625 74.9352 103.925 74.797 104.184 74.6009L110.861 78.8568L110.841 74.8094L104.503 71.3884C104.137 70.9845 103.632 70.726 103.084 70.6616C102.536 70.5973 101.982 70.7316 101.529 71.0393C101.075 71.3469 100.753 71.8064 100.623 72.3307C100.493 72.855 100.564 73.4077 100.823 73.884Z" fill="#A0616A"/>
<path d="M133.218 94.8189C126.333 94.8191 122.538 93.4725 120.523 92.2701C118.059 90.7999 117.638 89.2495 117.621 89.184L117.616 89.1653L117.856 86.2169L117.961 85.9874C118.444 84.9305 118.508 83.7358 118.141 82.6354L118.133 82.6127L118.135 82.5891L119.745 62.1888L125.443 60.3654L127.1 58.7384L134.48 58.6338L135.508 60.6704L141.326 62.8102L138.468 79.4322L137.097 81.7396L137.649 84.2531L137.645 84.2757L135.847 94.7577L135.749 94.7619C134.862 94.8007 134.019 94.8197 133.218 94.8189Z" fill="#3F3D56"/>
<path d="M115.405 82.0918L112.704 80.5271L112.534 80.2883C112.19 79.8049 111.735 79.4069 111.206 79.1265C110.676 78.846 110.086 78.6908 109.484 78.6734L109.452 78.6725L105.732 76.5354L107.274 72.1217L113.106 73.8051L117.172 63.9346C117.396 63.3925 117.769 62.9216 118.249 62.5741C118.73 62.2267 119.301 62.0164 119.896 61.9667C120.492 61.9169 121.091 62.0296 121.625 62.2923C122.159 62.555 122.609 62.9573 122.923 63.4545C123.245 63.9742 123.412 64.5714 123.405 65.1788V71.6372L123.38 71.6692L115.405 82.0918Z" fill="#3F3D56"/>
<path d="M133.464 91.0228C133.522 90.7074 133.65 90.4081 133.839 90.1462C134.028 89.8843 134.273 89.666 134.558 89.5068C134.842 89.3476 135.159 89.2512 135.486 89.2246C135.813 89.1979 136.142 89.2416 136.45 89.3526L141.509 83.3334L142.735 87.1998L137.742 92.323C137.517 92.8156 137.115 93.2105 136.612 93.4328C136.108 93.6551 135.539 93.6893 135.012 93.5291C134.485 93.3688 134.036 93.0252 133.751 92.5632C133.466 92.1013 133.364 91.5532 133.464 91.0228Z" fill="#A0616A"/>
<path d="M141.029 90.2622L137.67 86.9794L139.808 81.8881L142.908 77.7531C139.605 76.1822 137.126 72.4606 135.329 69.3799L135.309 69.3453L135.756 65.9223C135.861 65.1216 136.189 64.3646 136.705 63.7342C137.154 63.186 137.73 62.7507 138.386 62.4647C139.043 62.1787 139.759 62.0504 140.476 62.0904C141.194 62.1305 141.891 62.3377 142.509 62.6948C143.128 63.052 143.65 63.5486 144.031 64.1432L150.055 77.2262L149.987 77.325L145.142 85.3944L143.82 86.2322L141.029 90.2622Z" fill="#3F3D56"/>
<path d="M136.089 51.7716C135.867 53.3491 135.014 54.7761 133.716 55.7392C132.418 56.7023 130.782 57.1227 129.167 56.908C127.552 56.6932 126.09 55.861 125.103 54.594C124.116 53.3271 123.684 51.7291 123.902 50.1512L123.914 50.0659C124.169 48.509 125.04 47.1124 126.339 46.1773C127.638 45.2422 129.262 44.8435 130.859 45.0673C132.457 45.2911 133.9 46.1195 134.878 47.3736C135.856 48.6278 136.29 50.2073 136.087 51.7714L136.089 51.7716Z" fill="#A0616A"/>
<path d="M134.524 54.8661C134.839 54.2393 135.164 53.5665 135.075 52.8733C134.986 52.1802 134.29 51.5176 133.607 51.7236C133.199 51.8468 132.89 52.241 132.463 52.2611C131.875 52.2889 131.538 51.6319 131.355 51.0856L130.611 48.8608C129.895 49.4054 129.066 49.7891 128.181 49.9844C127.297 50.1797 126.379 50.1818 125.493 49.9906C124.802 49.8361 124.103 49.5349 123.697 48.9662C123.292 48.3976 123.294 47.5156 123.85 47.0856C124.123 46.8748 124.486 46.7947 124.747 46.5697C124.909 46.4301 125.02 46.2434 125.065 46.0371C125.11 45.8309 125.085 45.616 124.995 45.4244C124.905 45.2328 124.755 45.0746 124.565 44.9732C124.376 44.8718 124.159 44.8325 123.945 44.8613L125.82 44.6323L125.262 43.6449C125.474 43.7861 125.714 43.8825 125.967 43.9278C126.22 43.9731 126.479 43.9663 126.729 43.9079C127.234 43.8192 127.709 43.6162 128.203 43.4808C129.399 43.1823 130.663 43.2735 131.802 43.7406C132.94 44.2078 133.892 45.0253 134.511 46.0689C134.973 45.9183 135.47 45.9083 135.938 46.0402C136.405 46.1721 136.821 46.4396 137.129 46.8074C137.631 47.43 137.768 48.2608 137.787 49.0532C137.824 50.6156 137.475 52.1636 136.771 53.5667C136.569 54.0124 136.278 54.4146 135.917 54.7503C135.734 54.9168 135.517 55.0422 135.28 55.118C135.043 55.1937 134.792 55.2178 134.544 55.1887" fill="#2F2E41"/>
<path d="M34.8745 48.6846C34.9749 50.0838 35.3968 51.443 36.109 52.661C37.6099 55.2363 40.1837 57.1008 42.9559 58.209C46.4192 59.5936 50.2799 59.6363 53.9554 59.3276C57.3692 59.0408 60.7483 58.3761 64.1747 58.2391C66.8245 58.1563 69.477 58.2181 72.1197 58.4243C77.247 58.7798 82.3529 59.4395 87.4259 60.2392C88.7999 60.4532 90.1709 60.683 91.539 60.9288C91.6683 60.9399 91.7962 60.9632 91.921 60.9981C91.9458 61.0081 91.9858 61.0003 92.0085 61.0143C92.0498 61.0397 91.8415 60.9499 91.9678 61.0518C92.1438 61.2322 92.3007 61.4295 92.4362 61.6407L94.3098 63.9964C94.8471 64.6719 95.3457 65.4927 96.0401 66.0251C96.5298 66.3947 97.1204 66.6143 97.7377 66.6564C98.3549 66.6984 98.9711 66.5609 99.5084 66.2613C100.07 65.9147 100.517 65.4179 100.798 64.83C101.229 64.0577 101.743 63.3327 102.332 62.6671C104.561 60.1266 107.659 58.564 110.25 56.4264C111.505 55.4334 112.576 54.2372 113.417 52.8898C114.134 51.6706 114.58 50.3174 114.725 48.9184C115.035 46.0775 114.143 43.1802 112.642 40.7634C111.01 38.1669 108.665 36.0697 105.873 34.7103C102.737 33.1494 99.2674 32.3891 95.7891 32.0102C92.0961 31.608 88.3602 31.6092 84.6491 31.6499C80.4844 31.6951 76.3271 31.8741 72.1774 32.1867C68.0221 32.5009 63.8831 32.9475 59.7605 33.5266C55.8047 34.0823 51.8006 34.6614 47.9284 35.6446C44.5077 36.5132 41.0966 37.8708 38.5422 40.3306C36.271 42.5177 34.6913 45.5107 34.8745 48.6846Z" fill="#81C9C0"/>
<path d="M53.9956 49.5883C53.8264 49.5808 53.6607 49.5393 53.5089 49.4662C53.357 49.3931 53.2223 49.2901 53.1132 49.1637C53.004 49.0373 52.9229 48.8901 52.8748 48.7316C52.8267 48.573 52.8128 48.4064 52.8338 48.2423L52.9217 47.5663C52.9385 47.4366 52.9228 47.3049 52.876 47.1825C52.8291 47.06 52.7526 46.9505 52.6528 46.8634L52.1331 46.4097C51.9629 46.2611 51.8386 46.069 51.7743 45.8551C51.7101 45.6411 51.7084 45.4139 51.7694 45.199C51.8304 44.9842 51.9518 44.7903 52.1197 44.6393C52.2877 44.4884 52.4955 44.3863 52.7198 44.3448L53.405 44.2176C53.5363 44.1933 53.6596 44.1381 53.7643 44.0568C53.869 43.9756 53.9519 43.8707 54.0058 43.7512L54.2871 43.1272C54.3792 42.9232 54.5278 42.7484 54.7162 42.6227C54.9046 42.4969 55.1253 42.4251 55.3533 42.4155C55.5813 42.4058 55.8075 42.4587 56.0063 42.568C56.2052 42.6774 56.3687 42.8389 56.4786 43.0343L56.8138 43.6317C56.8781 43.7464 56.97 43.844 57.0816 43.9163C57.1932 43.9885 57.3211 44.0331 57.4542 44.0463L58.1479 44.1148C58.375 44.1372 58.5911 44.2213 58.7718 44.3575C58.9525 44.4937 59.0906 44.6765 59.1705 44.8854C59.2503 45.0943 59.2688 45.3208 59.2237 45.5394C59.1787 45.758 59.0719 45.9599 58.9156 46.1223L58.4378 46.6185C58.3461 46.7136 58.2795 46.829 58.2437 46.9549C58.2079 47.0808 58.2041 47.2133 58.2324 47.341L58.3798 48.0073C58.4281 48.2252 58.413 48.4519 58.3362 48.6618C58.2595 48.8717 58.1241 49.0565 57.9455 49.1952C57.7669 49.3339 57.5522 49.4211 57.3256 49.4468C57.0989 49.4725 56.8694 49.4357 56.6631 49.3407L56.0322 49.0503C55.9113 48.9943 55.7782 48.968 55.6445 48.9736C55.5109 48.9792 55.3806 49.0166 55.265 49.0825L54.6623 49.4254C54.4605 49.5408 54.2291 49.5973 53.9956 49.5883Z" fill="white"/>
<path d="M63.8169 49.3096C63.5057 49.2956 63.2115 49.1673 62.9931 48.9503C62.8611 48.8137 62.7626 48.6496 62.7052 48.4704C62.6477 48.2911 62.6328 48.1015 62.6614 47.9158L62.7421 47.2955C62.7592 47.1634 62.7433 47.0292 62.6956 46.9045C62.6479 46.7798 62.5699 46.6683 62.4682 46.5796L61.9861 46.1587C61.8439 46.0401 61.7306 45.892 61.6543 45.7252C61.5781 45.5585 61.5409 45.3772 61.5454 45.1946C61.5559 44.9241 61.6602 44.6651 61.8411 44.4601C62.022 44.2551 62.2688 44.1162 62.5411 44.0661L63.2183 43.9405C63.3523 43.9156 63.478 43.8593 63.5847 43.7764C63.6914 43.6935 63.7758 43.5865 63.8307 43.4646L64.0831 42.9047C64.1733 42.6922 64.3218 42.5081 64.5123 42.3727C64.7027 42.2373 64.9277 42.1559 65.1624 42.1374C65.3925 42.1247 65.6215 42.176 65.8229 42.2855C66.0243 42.3949 66.1897 42.558 66.2999 42.7557L66.6313 43.3461C66.6969 43.463 66.7906 43.5625 66.9043 43.6361C67.0181 43.7097 67.1484 43.7551 67.2841 43.7685L67.927 43.832C68.1135 43.8462 68.2944 43.901 68.4565 43.9922C68.6186 44.0834 68.7578 44.2088 68.8639 44.3593C69.0179 44.5842 69.0892 44.8535 69.0661 45.1232C69.0431 45.3928 68.927 45.6468 68.7369 45.8436L68.2647 46.3341C68.1714 46.431 68.1036 46.5486 68.0672 46.6768C68.0307 46.805 68.0267 46.9399 68.0555 47.0699L68.1916 47.6852C68.2352 47.8628 68.2379 48.0476 68.1996 48.2263C68.1612 48.405 68.0827 48.5732 67.9697 48.7187C67.799 48.9325 67.5588 49.083 67.2888 49.1454C67.0188 49.2078 66.735 49.1784 66.4844 49.062L65.8601 48.7746C65.737 48.718 65.6016 48.6914 65.4656 48.6971C65.3295 48.7029 65.197 48.7409 65.0794 48.8078L64.4836 49.1468C64.2819 49.2621 64.0505 49.3186 63.8169 49.3096Z" fill="white"/>
<path d="M73.6639 49.269C73.4948 49.2616 73.3291 49.22 73.1772 49.1469C73.0254 49.0739 72.8906 48.9709 72.7815 48.8444C72.6724 48.718 72.5912 48.5709 72.5431 48.4123C72.4951 48.2537 72.4811 48.0871 72.5022 47.923L72.5901 47.247C72.6068 47.1173 72.5911 46.9856 72.5443 46.8632C72.4975 46.7407 72.4209 46.6313 72.3212 46.5441L71.8014 46.0904C71.6312 45.9418 71.507 45.7497 71.4427 45.5358C71.3784 45.3219 71.3767 45.0946 71.4377 44.8798C71.4988 44.6649 71.6201 44.471 71.7881 44.3201C71.956 44.1691 72.1639 44.0671 72.3881 44.0255L73.0733 43.8983C73.2046 43.874 73.328 43.8188 73.4326 43.7375C73.5373 43.6563 73.6202 43.5514 73.6742 43.4319L73.9554 42.8079C74.0475 42.6039 74.1961 42.4292 74.3846 42.3034C74.573 42.1776 74.7936 42.1059 75.0216 42.0962C75.2496 42.0866 75.4758 42.1394 75.6747 42.2488C75.8735 42.3581 76.0371 42.5196 76.1469 42.7151L76.4822 43.3124C76.5465 43.4271 76.6384 43.5248 76.7499 43.597C76.8615 43.6692 76.9894 43.7139 77.1226 43.727L77.8163 43.7955C78.0433 43.8179 78.2594 43.902 78.4401 44.0382C78.6208 44.1744 78.7589 44.3572 78.8388 44.5661C78.9187 44.775 78.9371 45.0015 78.8921 45.2201C78.847 45.4387 78.7403 45.6406 78.5839 45.803L78.1062 46.2992C78.0145 46.3943 77.9478 46.5098 77.9121 46.6356C77.8763 46.7615 77.8724 46.894 77.9008 47.0217L78.0482 47.688C78.0964 47.9059 78.0813 48.1326 78.0046 48.3425C77.9278 48.5524 77.7925 48.7372 77.6139 48.8759C77.4353 49.0146 77.2205 49.1018 76.9939 49.1275C76.7673 49.1532 76.5378 49.1164 76.3314 49.0214L75.7006 48.731C75.5797 48.675 75.4466 48.6487 75.3129 48.6543C75.1792 48.6599 75.0489 48.6973 74.9333 48.7632L74.3306 49.1061C74.1288 49.2215 73.8975 49.278 73.6639 49.269Z" fill="white"/>
<path opacity="0.2" d="M83.2416 49.0151C83.0725 49.0077 82.9068 48.9661 82.755 48.893C82.6031 48.82 82.4684 48.717 82.3592 48.5905C82.2501 48.4641 82.169 48.317 82.1209 48.1584C82.0728 47.9998 82.0589 47.8332 82.0799 47.6691L82.1678 46.9931C82.1846 46.8634 82.1689 46.7317 82.1221 46.6093C82.0752 46.4869 81.9987 46.3774 81.8989 46.2902L81.3792 45.8365C81.209 45.688 81.0847 45.4959 81.0204 45.2819C80.9562 45.068 80.9545 44.8407 81.0155 44.6259C81.0765 44.411 81.1979 44.2171 81.3658 44.0662C81.5338 43.9152 81.7416 43.8132 81.9658 43.7716L82.651 43.6444C82.7824 43.6201 82.9057 43.5649 83.0104 43.4836C83.1151 43.4024 83.198 43.2975 83.2519 43.178L83.5332 42.554C83.6252 42.35 83.7739 42.1753 83.9623 42.0495C84.1507 41.9237 84.3714 41.852 84.5994 41.8423C84.8274 41.8327 85.0536 41.8855 85.2524 41.9949C85.4513 42.1042 85.6148 42.2657 85.7246 42.4612L86.0599 43.0585C86.1242 43.1732 86.2161 43.2709 86.3277 43.3431C86.4393 43.4153 86.5672 43.46 86.7003 43.4731L87.394 43.5416C87.6211 43.564 87.8372 43.6481 88.0179 43.7843C88.1986 43.9205 88.3367 44.1034 88.4165 44.3122C88.4964 44.5211 88.5149 44.7476 88.4698 44.9662C88.4248 45.1848 88.318 45.3867 88.1617 45.5491L87.6839 46.0453C87.5922 46.1404 87.5256 46.2559 87.4898 46.3817C87.454 46.5076 87.4501 46.6401 87.4785 46.7678L87.6259 47.4341C87.6741 47.652 87.659 47.8787 87.5823 48.0886C87.5056 48.2986 87.3702 48.4833 87.1916 48.622C87.013 48.7608 86.7983 48.8479 86.5716 48.8736C86.345 48.8993 86.1155 48.8626 85.9091 48.7675L85.2783 48.4771C85.1574 48.4211 85.0243 48.3948 84.8906 48.4004C84.7569 48.4061 84.6267 48.4434 84.5111 48.5093L83.9084 48.8522C83.7066 48.9676 83.4752 49.0241 83.2416 49.0151Z" fill="black"/>
<path opacity="0.2" d="M92.8195 48.7612C92.6504 48.7538 92.4847 48.7122 92.3329 48.6391C92.181 48.566 92.0463 48.4631 91.9371 48.3366C91.828 48.2102 91.7468 48.063 91.6988 47.9045C91.6507 47.7459 91.6368 47.5793 91.6578 47.4152L91.7457 46.7392C91.7625 46.6095 91.7468 46.4778 91.6999 46.3554C91.6531 46.2329 91.5765 46.1234 91.4768 46.0363L90.9571 45.5826C90.7869 45.434 90.6626 45.2419 90.5983 45.028C90.5341 44.814 90.5323 44.5868 90.5934 44.372C90.6544 44.1571 90.7758 43.9632 90.9437 43.8123C91.1117 43.6613 91.3195 43.5592 91.5437 43.5177L92.2289 43.3905C92.3603 43.3662 92.4836 43.311 92.5883 43.2297C92.693 43.1485 92.7758 43.0436 92.8298 42.9241L93.111 42.3001C93.2031 42.0961 93.3518 41.9214 93.5402 41.7956C93.7286 41.6698 93.9493 41.5981 94.1773 41.5884C94.4052 41.5787 94.6314 41.6316 94.8303 41.7409C95.0291 41.8503 95.1927 42.0118 95.3025 42.2073L95.6378 42.8046C95.7021 42.9193 95.794 43.017 95.9056 43.0892C96.0172 43.1614 96.145 43.2061 96.2782 43.2192L96.9719 43.2877C97.1989 43.3101 97.4151 43.3942 97.5958 43.5304C97.7765 43.6666 97.9146 43.8495 97.9945 44.0583C98.0743 44.2672 98.0928 44.4937 98.0477 44.7123C98.0027 44.9309 97.8959 45.1328 97.7395 45.2952L97.2618 45.7914C97.1701 45.8865 97.1035 46.002 97.0677 46.1278C97.0319 46.2537 97.028 46.3862 97.0564 46.5139L97.2038 47.1802C97.2521 47.3981 97.2369 47.6248 97.1602 47.8347C97.0834 48.0447 96.9481 48.2294 96.7695 48.3681C96.5909 48.5068 96.3762 48.594 96.1495 48.6197C95.9229 48.6454 95.6934 48.6087 95.487 48.5136L94.8562 48.2232C94.7353 48.1672 94.6022 48.1409 94.4685 48.1465C94.3348 48.1521 94.2046 48.1895 94.089 48.2554L93.4862 48.5983C93.2845 48.7137 93.0531 48.7702 92.8195 48.7612Z" fill="black"/>
<path d="M153.84 128.6L154.12 122.445C157.041 120.92 160.299 120.114 163.611 120.098C159.052 123.739 159.622 130.757 156.532 135.654C155.556 137.173 154.243 138.459 152.689 139.416C151.135 140.372 149.381 140.975 147.557 141.179L143.742 143.461C143.219 140.61 143.334 137.682 144.081 134.879C144.827 132.076 146.186 129.465 148.065 127.225C149.132 125.978 150.355 124.868 151.706 123.92C152.619 126.273 153.84 128.6 153.84 128.6Z" fill="#F2F2F2"/>
<path d="M175.708 144H73.4699C73.3925 144 73.3183 143.97 73.2637 143.917C73.209 143.863 73.1782 143.791 73.1782 143.715C73.1782 143.64 73.209 143.567 73.2637 143.514C73.3183 143.46 73.3925 143.43 73.4699 143.43H175.708C175.786 143.43 175.86 143.46 175.915 143.514C175.969 143.567 176 143.64 176 143.715C176 143.791 175.969 143.863 175.915 143.917C175.86 143.97 175.786 144 175.708 144Z" fill="#CACACA"/>
</g>
<defs>
<clipPath id="clip0_7_1485">
<rect width="176" height="144" fill="white"/>
</clipPath>
</defs>
</svg>
