<svg width="176" height="98" viewBox="0 0 176 98" fill="none" xmlns="http://www.w3.org/2000/svg">
<g clip-path="url(#clip0_7_1414)">
<path d="M37.0394 97.6269H10.1509C10.1509 97.6269 9.60584 89.674 12.8305 89.5836C16.0553 89.4933 15.6919 93.1082 19.7344 88.1377C23.7768 83.1671 28.6819 83.4383 29.3178 86.3755C29.9537 89.3127 28.0916 91.6622 31.498 90.9392C34.9044 90.2162 39.8099 92.1141 37.0394 97.6269Z" fill="#E6E6E6"/>
<path d="M23.1414 97.6289L23.0505 97.6253C23.2622 92.3893 24.3644 89.0255 25.2519 87.1248C26.2154 85.0617 27.1439 84.2264 27.1532 84.2183L27.2137 84.2858C27.2045 84.294 26.2869 85.1208 25.3311 87.1701C24.4485 89.0621 23.3523 92.4125 23.1414 97.6289Z" fill="white"/>
<path d="M32.8728 97.6395L32.7856 97.6142C33.4619 95.3951 34.6808 93.3775 36.3334 91.7422L36.3944 91.8092C34.7541 93.4331 33.5442 95.4363 32.8728 97.6395Z" fill="white"/>
<path d="M14.3861 97.6332L14.296 97.6208C14.5892 95.6577 14.279 93.6523 13.4061 91.8678C13.0483 91.1193 12.5747 90.4313 12.0024 89.8289L12.0654 89.7637C12.6453 90.3733 13.1255 91.0698 13.4884 91.8276C14.3691 93.6285 14.682 95.6522 14.3861 97.6332Z" fill="white"/>
<path d="M40.6885 97.7477H7.25093L7.24327 97.6351C7.22415 97.3548 6.79749 90.7424 8.95106 88.383C9.16472 88.1337 9.42847 87.9317 9.72533 87.79C10.0222 87.6483 10.3456 87.57 10.6747 87.5601C12.0784 87.5203 12.9606 88.0436 13.6722 88.4633C15.0134 89.2547 15.8992 89.7778 19.1207 85.8167C22.6103 81.5258 26.3756 80.6025 28.5401 81.1158C29.9386 81.4476 30.9025 82.385 31.1846 83.6881C31.4523 84.922 31.3666 86.0812 31.2982 87.0129C31.2249 88.0097 31.1672 88.7968 31.5787 89.1537C31.9229 89.4515 32.6078 89.4785 33.7361 89.239C36.031 88.7519 39.2339 89.1686 40.8413 91.235C41.7061 92.3466 42.3875 94.3672 40.7221 97.681L40.6885 97.7477ZM7.47907 97.5059H40.538C41.7789 95.0012 41.8178 92.8851 40.6491 91.383C39.1744 89.4874 36.0807 88.9886 33.7868 89.4754C32.5607 89.7357 31.8304 89.6927 31.419 89.3362C30.9159 88.9001 30.9776 88.0595 31.0557 86.996C31.123 86.0799 31.2066 84.9397 30.9468 83.7397C30.6852 82.5314 29.7874 81.6609 28.4835 81.3517C26.388 80.8544 22.7271 81.7659 19.3094 85.9693C15.9562 90.0926 14.9459 89.4967 13.5481 88.671C12.8277 88.246 12.01 87.7641 10.6814 87.8015C10.3851 87.811 10.0941 87.8821 9.82701 88.0102C9.55996 88.1383 9.32282 88.3205 9.13083 88.5453C7.19585 90.6659 7.43184 96.6119 7.47927 97.5059H7.47907Z" fill="#2F2E41"/>
<path d="M149.944 97.882H117.01L117.003 97.6984L115.431 52.9532H151.523L149.944 97.882ZM117.379 97.5015H149.575L151.127 53.3338H115.827L117.379 97.5015Z" fill="#3F3D56"/>
<path d="M124.866 61.2438H122.361V92.0842H124.866V61.2438Z" fill="#3F3D56"/>
<path d="M134.73 61.2438H132.224V92.0842H134.73V61.2438Z" fill="#3F3D56"/>
<path d="M144.593 61.2438H142.088V92.0842H144.593V61.2438Z" fill="#3F3D56"/>
<path d="M172.452 66.0927L172.29 65.991L131.381 40.2712L134.929 34.6848L135.091 34.7864L176 60.5062L172.452 66.0927ZM131.909 40.1528L172.332 65.5676L175.472 60.6247L135.048 35.2097L131.909 40.1528Z" fill="#3F3D56"/>
<path d="M162.575 38.1983C161.385 37.4496 160.005 37.056 158.598 37.0642C157.191 37.0724 155.816 37.4821 154.635 38.2446C153.455 39.0072 152.52 40.0905 151.94 41.3662C151.36 42.6418 151.16 44.0562 151.364 45.4415L153.315 46.6679C152.824 45.5354 152.711 44.2766 152.992 43.0757C153.273 41.8749 153.933 40.795 154.876 39.9942C155.818 39.1935 156.993 38.7139 158.23 38.6258C159.466 38.5376 160.698 38.8455 161.745 39.5044C162.793 40.1633 163.601 41.1385 164.051 42.2872C164.501 43.436 164.57 44.698 164.247 45.8883C163.924 47.0787 163.227 48.135 162.257 48.9025C161.287 49.6701 160.095 50.1085 158.857 50.1536L160.807 51.38C162.153 50.9691 163.351 50.1829 164.261 49.1147C165.171 48.0464 165.753 46.741 165.939 45.3533C166.126 43.9655 165.908 42.5538 165.312 41.2856C164.715 40.0173 163.766 38.9458 162.576 38.1983H162.575Z" fill="#3F3D56"/>
<path d="M173.838 97.6195H0V98H173.838V97.6195Z" fill="#3F3D56"/>
<path d="M75.9298 95.0229H73.1445L71.8188 84.3353H75.9305L75.9298 95.0229Z" fill="#FEB8B8"/>
<path d="M67.7731 97.5956H76.5264V94.2311H71.1081C70.2236 94.2311 69.3753 94.5806 68.7499 95.2029C68.1244 95.8251 67.7731 96.669 67.7731 97.549V97.5956Z" fill="#2F2E41"/>
<path d="M74.9508 78.4619L76.872 80.4682L85.5643 74.0513L82.729 71.0903L74.9508 78.4619Z" fill="#FEB8B8"/>
<path d="M78.8513 81.3874L75.1127 77.4847L72.6642 79.8063L78.704 86.1111L78.7379 86.079C79.055 85.7783 79.3094 85.4185 79.4867 85.02C79.664 84.6215 79.7607 84.1922 79.7713 83.7566C79.7818 83.3209 79.7059 82.8875 79.5481 82.481C79.3903 82.0745 79.1535 81.7029 78.8513 81.3874V81.3874Z" fill="#2F2E41"/>
<path d="M55.5647 49.1813C55.3884 48.8992 55.2765 48.582 55.2367 48.2522C55.197 47.9224 55.2303 47.5879 55.3345 47.2723C55.4387 46.9567 55.6112 46.6676 55.8398 46.4255C56.0684 46.1834 56.3476 45.994 56.6577 45.8708L67.5926 18.1449L71.855 20.6839L59.7078 47.2822C59.8813 47.8143 59.8527 48.3913 59.6272 48.9038C59.4017 49.4163 58.995 49.8287 58.4843 50.0628C57.9735 50.2969 57.3942 50.3365 56.8561 50.174C56.318 50.0116 55.8585 49.6584 55.5647 49.1813Z" fill="#FEB8B8"/>
<path d="M97.0701 51.1686C96.7369 51.1449 96.413 51.0488 96.1212 50.8871C95.8294 50.7254 95.5768 50.5019 95.3812 50.2326C95.1856 49.9632 95.0518 49.6544 94.9891 49.328C94.9265 49.0015 94.9366 48.6654 95.0187 48.3433L78.8867 23.254L83.4557 21.3134L97.9586 46.7173C98.4942 46.8896 98.9475 47.2515 99.2326 47.7343C99.5177 48.2172 99.6146 48.7873 99.505 49.3366C99.3954 49.8858 99.0868 50.3759 98.638 50.7138C98.1891 51.0517 97.6312 51.2138 97.0701 51.1694V51.1686Z" fill="#FEB8B8"/>
<path d="M67.7003 46.4051L70.5557 88.6261L77.3796 88.0272L78.7845 56.8775L82.5978 70.2554L90.8265 70.8544L87.5695 44.4083L67.7003 46.4051Z" fill="#2F2E41"/>
<path d="M83.8021 68.2589L82.5973 70.2557L74.1687 76.046L80.1897 79.2409C80.1897 79.2409 91.8304 72.8514 90.8269 70.8546L83.8021 68.2589Z" fill="#2F2E41"/>
<path d="M61.7247 29.3228L64.1001 22.6637C64.6286 21.1821 65.4472 19.8194 66.5086 18.6546C67.5699 17.4897 68.8529 16.5459 70.2833 15.8776C73.4985 14.6992 76.9952 14.5088 80.3204 15.331L81.1849 15.5444C83.4899 16.1003 85.6496 17.138 87.5203 18.5886C88.984 19.7366 90.3009 21.1902 90.4182 22.7537C90.4188 22.7571 90.4197 22.7603 90.421 22.7634C90.8265 24.5313 91.0271 33.7161 91.0271 33.7161H87.4509L88.0166 46.0957L87.9708 46.0061C87.9708 46.0061 67.3444 49.8895 67.3444 47.8927V35.1134L66.9215 30.4863L61.7247 29.3228Z" fill="#CCCCCC"/>
<path d="M80.9776 13.6C84.1345 13.6 86.6936 11.054 86.6936 7.91335C86.6936 4.77269 84.1345 2.22668 80.9776 2.22668C77.8207 2.22668 75.2616 4.77269 75.2616 7.91335C75.2616 11.054 77.8207 13.6 80.9776 13.6Z" fill="#FEB8B8"/>
<path d="M81.8338 5.36314L86.2721 5.54008C86.8306 5.53836 87.4402 5.51877 87.8656 5.15956C88.5062 4.61751 88.3989 3.59468 88.0558 2.8306C87.0996 0.703116 84.9667 -0.0590613 82.6246 0.00353396C80.2825 0.0661293 77.8283 0.855893 76.567 2.81937C75.3058 4.78284 74.965 7.26231 75.4401 9.54389C75.9892 8.38374 76.8347 7.38718 77.892 6.65371C78.9494 5.92023 80.1816 5.4755 81.4657 5.3639L81.8338 5.36314Z" fill="#2F2E41"/>
<path d="M108.19 60.9866L92.125 49.7855C91.9757 49.681 91.8742 49.522 91.8426 49.3431C91.811 49.1643 91.8519 48.9803 91.9563 48.8314L104.565 30.9332C104.67 30.7847 104.83 30.6837 105.01 30.6522C105.19 30.6208 105.374 30.6615 105.524 30.7654L121.589 41.9665C121.738 42.071 121.84 42.2301 121.871 42.4089C121.903 42.5877 121.862 42.7717 121.757 42.9206L109.149 60.8184C109.044 60.967 108.884 61.0682 108.704 61.0998C108.524 61.1313 108.339 61.0906 108.19 60.9866Z" fill="#81C9C0"/>
<path d="M111.802 48.8326L102.376 42.26C102.267 42.184 102.174 42.0874 102.102 41.9756C102.031 41.8639 101.982 41.7393 101.959 41.6088C101.936 41.4784 101.939 41.3447 101.968 41.2154C101.997 41.0862 102.051 40.9638 102.128 40.8553C102.204 40.7469 102.301 40.6545 102.413 40.5834C102.526 40.5123 102.651 40.4638 102.782 40.4409C102.913 40.418 103.048 40.4209 103.178 40.4497C103.307 40.4784 103.43 40.5323 103.539 40.6083L112.966 47.1809C113.186 47.3344 113.336 47.5687 113.382 47.8321C113.429 48.0955 113.369 48.3666 113.214 48.5856C113.06 48.8046 112.824 48.9537 112.56 49C112.295 49.0464 112.022 48.9861 111.802 48.8326Z" fill="white"/>
<path d="M109.639 51.9036L100.213 45.3309C100.103 45.255 100.01 45.1584 99.9388 45.0466C99.8672 44.9349 99.8184 44.8102 99.7953 44.6797C99.7722 44.5492 99.7751 44.4155 99.804 44.2861C99.8328 44.1567 99.887 44.0343 99.9635 43.9258C100.04 43.8173 100.137 43.7248 100.249 43.6537C100.362 43.5826 100.487 43.5342 100.618 43.5113C100.75 43.4884 100.884 43.4914 101.014 43.5202C101.144 43.5491 101.267 43.6031 101.376 43.6792L110.803 50.2518C111.022 50.4055 111.172 50.6396 111.218 50.9029C111.265 51.1662 111.204 51.4371 111.05 51.656C110.896 51.8749 110.661 52.0239 110.396 52.0704C110.131 52.1168 109.859 52.0568 109.639 51.9036Z" fill="white"/>
<path d="M107.452 55.0076L98.0259 48.4349C97.9169 48.3589 97.824 48.2623 97.7525 48.1506C97.681 48.0388 97.6324 47.9142 97.6093 47.7838C97.5863 47.6533 97.5892 47.5197 97.6181 47.3904C97.647 47.2611 97.7012 47.1387 97.7776 47.0303C97.854 46.9218 97.9511 46.8294 98.0634 46.7583C98.1757 46.6872 98.301 46.6388 98.4321 46.6158C98.5632 46.5929 98.6976 46.5959 98.8275 46.6246C98.9575 46.6533 99.0805 46.7072 99.1895 46.7832L108.616 53.3558C108.836 53.5093 108.986 53.7436 109.032 54.007C109.079 54.2704 109.019 54.5415 108.864 54.7605C108.71 54.9795 108.474 55.1286 108.21 55.1749C107.945 55.2213 107.672 55.1611 107.452 55.0076V55.0076Z" fill="white"/>
<path d="M111.776 42.7577L108.125 40.2119C108.015 40.136 107.922 40.0394 107.851 39.9276C107.779 39.8159 107.731 39.6912 107.707 39.5607C107.684 39.4302 107.687 39.2964 107.716 39.1671C107.745 39.0377 107.799 38.9153 107.876 38.8068C107.952 38.6982 108.049 38.6058 108.162 38.5347C108.274 38.4635 108.399 38.4151 108.531 38.3922C108.662 38.3693 108.796 38.3724 108.926 38.4012C109.056 38.43 109.179 38.4841 109.288 38.5602L112.939 41.106C113.16 41.2595 113.309 41.4937 113.356 41.7571C113.402 42.0206 113.342 42.2916 113.188 42.5106C113.033 42.7297 112.798 42.8788 112.533 42.9251C112.268 42.9714 111.996 42.9112 111.776 42.7577Z" fill="white"/>
</g>
<defs>
<clipPath id="clip0_7_1414">
<rect width="176" height="98" fill="white"/>
</clipPath>
</defs>
</svg>
