<svg width="319" height="153" viewBox="0 0 319 153" fill="none" xmlns="http://www.w3.org/2000/svg">
<path d="M234.505 149.684H284.818L290.789 90.4255H228.534L234.505 149.684Z" fill="#DBE5E5"/>
<path d="M232.707 94.2796L286.618 94.2796C288.922 94.2796 290.789 92.4118 290.789 90.1078V68.0803C290.789 65.7763 288.922 63.9086 286.618 63.9086L232.707 63.9086C230.403 63.9086 228.535 65.7763 228.535 68.0803V90.1078C228.535 92.4118 230.403 94.2796 232.707 94.2796Z" fill="#DBE5E5"/>
<path d="M228.246 90.1078C228.246 92.4111 230.133 94.2757 232.456 94.2757H286.868C289.193 94.2757 291.078 92.408 291.078 90.1078" stroke="white" stroke-width="6" stroke-linecap="round" stroke-linejoin="round"/>
<path d="M228.246 92.5456C228.246 94.8489 230.133 96.7135 232.456 96.7135H286.868C289.193 96.7135 291.078 94.8458 291.078 92.5456" stroke="white" stroke-width="6" stroke-linecap="round" stroke-linejoin="round"/>
<path d="M236.235 90.5828H283.089C285.393 90.5828 287.261 88.715 287.261 86.411V71.6788C287.261 69.3748 285.393 67.5071 283.089 67.5071H236.235C233.931 67.5071 232.063 69.3748 232.063 71.6788V86.411C232.063 88.715 233.931 90.5828 236.235 90.5828Z" fill="#423C52"/>
<path d="M265.503 109.066V121.856L264.36 121.263L263.223 121.849L262.087 121.263L260.951 121.849L259.815 121.263L258.679 121.849L257.542 121.263L256.407 121.849L255.271 121.263L254.127 121.856V106.149H262.586V109.066H265.503Z" stroke="white" stroke-width="7" stroke-linecap="round" stroke-linejoin="round"/>
<path d="M265.503 108.836V109.066H262.586V106.149H262.816L265.503 108.836Z" stroke="white" stroke-width="7" stroke-linecap="round" stroke-linejoin="round"/>
<path d="M265.503 109.066H262.586V106.149L265.503 109.066Z" fill="white"/>
<path d="M171.989 149.684H222.388L228.369 90.4255H166.009L171.989 149.684Z" fill="#FFDB00"/>
<path d="M170.234 94.2796L224.145 94.2796C226.449 94.2796 228.316 92.4118 228.316 90.1078V68.0803C228.316 65.7763 226.449 63.9086 224.145 63.9086L170.234 63.9086C167.93 63.9086 166.062 65.7763 166.062 68.0803V90.1078C166.062 92.4118 167.93 94.2796 170.234 94.2796Z" fill="white" stroke="#FFDB00" stroke-width="5" stroke-miterlimit="10"/>
<path d="M166.061 92.5456C166.061 93.0933 166.169 93.6356 166.379 94.1415C166.589 94.6474 166.896 95.107 167.283 95.4941C167.671 95.8812 168.131 96.1881 168.637 96.3973C169.143 96.6066 169.685 96.714 170.233 96.7135H224.145C225.25 96.7135 226.31 96.2744 227.092 95.4927C227.873 94.7111 228.313 93.651 228.313 92.5456" stroke="white" stroke-width="5" stroke-miterlimit="10"/>
<path d="M173.762 90.5828H220.616C222.92 90.5828 224.788 88.715 224.788 86.411V71.6788C224.788 69.3748 222.92 67.5071 220.616 67.5071H173.762C171.458 67.5071 169.59 69.3748 169.59 71.6788V86.411C169.59 88.715 171.458 90.5828 173.762 90.5828Z" fill="#423C52"/>
<path d="M201.728 108.239V107.382C201.728 106.752 201.477 106.148 201.032 105.702C200.586 105.256 199.982 105.006 199.351 105.006H198.416V103.012C198.416 102.994 198.416 102.976 198.416 102.958C198.416 102.387 197.765 101.924 196.962 101.924C196.158 101.924 195.507 102.387 195.507 102.958C195.507 102.976 195.507 102.994 195.507 103.012V105.006H194.572C193.941 105.006 193.337 105.256 192.891 105.702C192.446 106.148 192.195 106.752 192.195 107.382V108.239C192.195 108.599 192.339 108.945 192.594 109.2C192.849 109.455 193.194 109.598 193.555 109.598H193.137C192.886 109.598 192.646 109.698 192.469 109.875C192.292 110.052 192.193 110.292 192.193 110.542V112.064C192.193 112.314 192.292 112.554 192.469 112.731C192.646 112.908 192.886 113.007 193.137 113.007H200.781C201.031 113.007 201.271 112.908 201.448 112.731C201.625 112.554 201.725 112.314 201.725 112.064V110.542C201.725 110.292 201.625 110.052 201.448 109.875C201.271 109.698 201.031 109.598 200.781 109.598H200.371C200.731 109.598 201.076 109.454 201.331 109.199C201.585 108.944 201.728 108.599 201.728 108.239ZM196.962 103.815C196.396 103.815 195.939 103.483 195.939 103.072C195.939 102.662 196.398 102.33 196.962 102.33C197.525 102.33 197.984 102.662 197.984 103.072C197.984 103.482 197.528 103.815 196.962 103.815Z" fill="white"/>
<path d="M201.728 114.33V125.239C201.728 125.318 201.714 125.396 201.684 125.47C201.654 125.543 201.61 125.61 201.555 125.666C201.499 125.722 201.433 125.767 201.36 125.798C201.287 125.829 201.209 125.845 201.13 125.845H200.419C200.306 125.845 200.196 125.812 200.101 125.752C200.006 125.691 199.93 125.605 199.881 125.503C199.87 125.465 199.856 125.429 199.842 125.393C199.755 125.205 199.616 125.047 199.441 124.937C199.266 124.827 199.063 124.77 198.857 124.773C198.65 124.776 198.449 124.839 198.277 124.954C198.105 125.069 197.971 125.231 197.89 125.421V125.428C197.885 125.442 197.88 125.454 197.875 125.468C197.875 125.471 197.875 125.474 197.875 125.477C197.83 125.587 197.754 125.68 197.656 125.746C197.558 125.812 197.442 125.848 197.324 125.848H196.616C196.501 125.847 196.388 125.813 196.291 125.749C196.194 125.686 196.118 125.596 196.071 125.49C196.064 125.464 196.054 125.439 196.044 125.411C195.961 125.221 195.824 125.06 195.651 124.946C195.478 124.833 195.275 124.772 195.068 124.772C194.861 124.771 194.658 124.831 194.485 124.944C194.311 125.056 194.174 125.217 194.09 125.406C194.078 125.432 194.068 125.458 194.06 125.485C194.031 125.551 193.989 125.611 193.939 125.663C193.884 125.719 193.818 125.763 193.745 125.794C193.673 125.824 193.595 125.84 193.516 125.84H192.809C192.649 125.838 192.496 125.774 192.384 125.66C192.272 125.547 192.21 125.393 192.211 125.233V114.33C192.211 113.98 192.35 113.643 192.598 113.395C192.846 113.147 193.182 113.008 193.533 113.008H200.422C200.769 113.013 201.102 113.154 201.346 113.401C201.591 113.649 201.728 113.982 201.728 114.33Z" fill="white"/>
<path d="M196.962 106.627C196.067 106.627 195.31 106.234 195.124 105.665L195.114 105.635V104.916H195.507V105.567C195.657 105.948 196.274 106.232 196.962 106.232C197.65 106.232 198.267 105.948 198.416 105.567V104.773H198.81V105.633L198.8 105.663C198.613 106.231 197.855 106.627 196.962 106.627Z" fill="#FFDB00"/>
<path d="M201.158 109.792H192.769C192.716 109.792 192.666 109.771 192.63 109.734C192.593 109.697 192.572 109.647 192.572 109.595C192.572 109.543 192.593 109.493 192.63 109.456C192.666 109.419 192.716 109.399 192.769 109.399H201.158C201.21 109.399 201.26 109.419 201.297 109.456C201.334 109.493 201.354 109.543 201.354 109.595C201.354 109.647 201.334 109.697 201.297 109.734C201.26 109.771 201.21 109.792 201.158 109.792Z" fill="#FFDB00"/>
<path d="M201.158 113.331H192.769C192.716 113.331 192.666 113.31 192.63 113.273C192.593 113.236 192.572 113.186 192.572 113.134C192.572 113.082 192.593 113.032 192.63 112.995C192.666 112.958 192.716 112.937 192.769 112.937H201.158C201.21 112.937 201.26 112.958 201.297 112.995C201.334 113.032 201.354 113.082 201.354 113.134C201.354 113.186 201.334 113.236 201.297 113.273C201.26 113.31 201.21 113.331 201.158 113.331Z" fill="#FFDB00"/>
<path d="M109.025 149.684L103.054 90.4255H165.308L159.338 149.684" stroke="#DBE5E5" stroke-width="6" stroke-miterlimit="10"/>
<path d="M165.047 92.5456C165.047 94.8489 163.195 96.7135 160.91 96.7135H107.452C105.167 96.7135 103.315 94.8458 103.315 92.5456" stroke="#DBE5E5" stroke-width="6" stroke-miterlimit="10"/>
<path d="M161.136 63.9078H107.225C104.921 63.9078 103.054 65.7755 103.054 68.0795V90.107C103.054 92.411 104.921 94.2788 107.225 94.2788H161.136C163.44 94.2788 165.308 92.411 165.308 90.107V68.0795C165.308 65.7755 163.44 63.9078 161.136 63.9078Z" fill="white" stroke="#DBE5E5" stroke-width="6" stroke-miterlimit="10"/>
<path d="M157.608 67.5078H110.754C108.45 67.5078 106.582 69.3756 106.582 71.6796V86.4118C106.582 88.7158 108.45 90.5836 110.754 90.5836H157.608C159.912 90.5836 161.78 88.7158 161.78 86.4118V71.6796C161.78 69.3756 159.912 67.5078 157.608 67.5078Z" fill="#423C52"/>
<path d="M136.019 106.461V114.954C136.019 116.184 134.47 117.18 132.559 117.18C130.648 117.18 129.099 116.184 129.099 114.954V106.461C129.099 107.691 130.647 108.687 132.559 108.687C134.471 108.687 136.019 107.691 136.019 106.461Z" fill="#DBE5E5"/>
<path d="M135.759 106.446V106.461C135.759 107.691 134.327 108.687 132.559 108.687C130.791 108.687 129.358 107.691 129.358 106.461V106.446C129.37 105.223 130.798 104.234 132.559 104.234C134.32 104.234 135.748 105.223 135.759 106.446Z" stroke="#DBE5E5" stroke-width="6" stroke-miterlimit="10"/>
<path d="M132.559 117.18V123.771" stroke="#DBE5E5" stroke-width="6" stroke-miterlimit="10"/>
<path d="M134.959 123.771H130.158" stroke="#DBE5E5" stroke-width="6" stroke-miterlimit="10"/>
<path d="M97.1266 149.684H46.6005L40.6043 90.4255H103.122L97.1266 149.684Z" fill="#FE552F"/>
<path d="M98.8189 63.9078H44.9082C42.6042 63.9078 40.7364 65.7755 40.7364 68.0795V90.107C40.7364 92.411 42.6042 94.2788 44.9082 94.2788H98.8189C101.123 94.2788 102.991 92.411 102.991 90.107V68.0795C102.991 65.7755 101.123 63.9078 98.8189 63.9078Z" fill="white" stroke="#FE552F" stroke-width="5" stroke-miterlimit="10"/>
<path d="M103.24 92.5456C103.24 94.8489 101.357 96.7135 99.0352 96.7135H44.6958C42.3729 96.7135 40.4902 94.8458 40.4902 92.5456" stroke="white" stroke-width="6" stroke-linecap="round" stroke-linejoin="round"/>
<path d="M95.2904 67.5078H48.4359C46.1319 67.5078 44.2641 69.3756 44.2641 71.6796V86.4118C44.2641 88.7158 46.1319 90.5836 48.4359 90.5836H95.2904C97.5944 90.5836 99.4622 88.7158 99.4622 86.4118V71.6796C99.4622 69.3756 97.5944 67.5078 95.2904 67.5078Z" fill="#423C52"/>
<path d="M77.695 112.639C77.695 115.354 75.9083 117.555 73.7041 117.555C73.4413 117.555 73.1794 117.524 72.924 117.462C72.1813 117.28 71.4058 117.28 70.6631 117.462C70.4072 117.524 70.1448 117.555 69.8815 117.555C67.6796 117.555 65.8906 115.353 65.8906 112.639C65.8906 109.926 67.6764 107.723 69.8815 107.723C70.5643 107.726 71.2303 107.935 71.7932 108.321C72.3558 107.935 73.0216 107.726 73.7041 107.723C75.906 107.723 77.695 109.924 77.695 112.639Z" fill="white"/>
<path d="M71.7908 108.321V105.138" stroke="white" stroke-width="7" stroke-linecap="round" stroke-linejoin="round"/>
<path d="M75.3862 104.547C75.3677 104.967 75.2531 105.376 75.0513 105.744C74.8495 106.112 74.5657 106.429 74.2221 106.67C73.8784 106.91 73.4839 107.069 73.0692 107.133C72.6544 107.197 72.2305 107.165 71.8301 107.04C71.8494 106.621 71.9645 106.212 72.1666 105.844C72.3687 105.477 72.6525 105.161 72.996 104.92C73.3395 104.68 73.7336 104.521 74.148 104.457C74.5624 104.393 74.986 104.425 75.3862 104.55V104.547Z" fill="white"/>
<path d="M303.893 150.034H227.58C227.58 150.034 230.382 140.603 240.971 140.182C251.56 139.76 263.735 146.615 263.735 146.615C263.735 146.615 265.667 124.107 283.862 122.841C302.057 121.575 303.893 150.034 303.893 150.034Z" fill="#81C9C0"/>
<path d="M317.862 144.365C315.416 147.861 311.703 150.034 311.703 150.034H273.248C268.939 141.236 269.12 129.522 270.04 124.574C270.319 123.074 272.197 122.529 273.221 123.661C279.403 130.485 285.385 145.179 285.385 145.179C286.801 129.386 295.197 114.71 299.74 107.79C300.935 105.968 303.737 106.461 304.233 108.582C307.518 122.641 301.218 136.034 300.983 136.529C303.692 131.266 308.242 127.368 311.331 125.155C312.76 124.132 314.74 125.218 314.644 126.974C314.251 134.217 311.312 140.153 308.578 144.187C310.818 142.614 313.337 141.61 315.42 140.978C317.43 140.368 319.066 142.644 317.862 144.365Z" fill="#75B6AE"/>
<path d="M302.179 106.932C302.179 106.932 298.548 132.771 290.8 149.761" stroke="#81C9C0" stroke-width="5" stroke-miterlimit="10" stroke-linecap="round"/>
<path d="M313.44 125.395C313.44 125.395 303.217 146.213 296.027 149.761" stroke="#81C9C0" stroke-width="5" stroke-miterlimit="10" stroke-linecap="round"/>
<path d="M271.669 123.672C271.669 123.672 275.589 143.507 280.257 149.761" stroke="#81C9C0" stroke-width="5" stroke-miterlimit="10" stroke-linecap="round"/>
<path d="M311.013 117.38C312.021 117.38 312.838 116.563 312.838 115.555C312.838 114.546 312.021 113.729 311.013 113.729C310.005 113.729 309.188 114.546 309.188 115.555C309.188 116.563 310.005 117.38 311.013 117.38Z" stroke="#81C9C0" stroke-width="5" stroke-miterlimit="10"/>
<path d="M261.219 139.062C262.079 139.062 262.776 138.365 262.776 137.505C262.776 136.645 262.079 135.948 261.219 135.948C260.359 135.948 259.662 136.645 259.662 137.505C259.662 138.365 260.359 139.062 261.219 139.062Z" stroke="#81C9C0" stroke-width="5" stroke-miterlimit="10"/>
<path d="M297.091 112.51L299.799 119.562L304.778 113.729" stroke="#81C9C0" stroke-width="5" stroke-miterlimit="10" stroke-linecap="round"/>
<path d="M294.96 116.387L298.42 125.395L304.78 117.944" stroke="#81C9C0" stroke-width="5" stroke-miterlimit="10" stroke-linecap="round"/>
<path d="M303.144 133.667V142.859H308.957" stroke="#81C9C0" stroke-width="5" stroke-miterlimit="10" stroke-linecap="round"/>
<path d="M280.602 136.023L278.438 146.615L270.475 138.263" stroke="#81C9C0" stroke-width="5" stroke-miterlimit="10" stroke-linecap="round"/>
<path d="M83.729 145.368C90.2028 145.368 95.4509 140.12 95.4509 133.646C95.4509 127.172 90.2028 121.924 83.729 121.924C77.2551 121.924 72.0071 127.172 72.0071 133.646C72.0071 140.12 77.2551 145.368 83.729 145.368Z" fill="#75B6AE"/>
<path d="M77.4402 137.229L90.9142 124.85" stroke="#81C9C0" stroke-width="5" stroke-miterlimit="10" stroke-linecap="round"/>
<path d="M86.3296 122.605L85.3733 129.94" stroke="#81C9C0" stroke-width="5" stroke-miterlimit="10" stroke-linecap="round"/>
<path d="M84 132.429L95.1423 130" stroke="#81C9C0" stroke-width="5" stroke-miterlimit="10" stroke-linecap="round"/>
<path d="M92.5884 126.493L91.2555 130.144" stroke="#81C9C0" stroke-width="5" stroke-miterlimit="10" stroke-linecap="round"/>
<path d="M79.554 122.996L79.0004 135.795" stroke="#81C9C0" stroke-width="5" stroke-miterlimit="10" stroke-linecap="round"/>
<path d="M76.9653 124.322L79.2757 129.429" stroke="#81C9C0" stroke-width="5" stroke-miterlimit="10" stroke-linecap="round"/>
<path d="M95.0325 134.151L82.2561 141.045" stroke="#81C9C0" stroke-width="5" stroke-miterlimit="10" stroke-linecap="round"/>
<path d="M118.058 149.7H0C0.254003 147.865 2.07056 139.889 14.4813 140.528C14.4813 140.528 17.1307 115.294 43.0916 113.747C74.6682 111.859 82.6744 141.236 82.6744 141.236C82.6744 141.236 112.169 133.966 118.058 149.7Z" fill="#81C9C0"/>
<path d="M32.5816 149.7C32.5816 149.7 21.5588 138.205 31.9336 132.95C39.5647 129.083 40.6326 147.853 40.6326 147.853C40.6326 147.853 40.5406 138.32 43.5941 138.691C46.6477 139.061 43.5941 148.968 43.5941 148.968C43.5941 148.968 49.8852 143.778 52.2011 146.465C54.5171 149.152 46.3709 149.704 46.3709 149.704L32.5816 149.7Z" fill="#75B6AE"/>
<path d="M267.214 43.8266C266.371 43.8267 265.555 44.1228 264.908 44.6634C264.262 45.204 263.825 45.9546 263.676 46.7842L258.8 73.8202C258.693 74.3305 258.701 74.8582 258.824 75.3649C258.946 75.8716 259.181 76.3446 259.509 76.7493C259.838 77.1541 260.253 77.4805 260.723 77.7047C261.194 77.9289 261.709 78.0453 262.23 78.0454H249.848C249.326 78.0453 248.812 77.9289 248.341 77.7047C247.87 77.4805 247.455 77.1541 247.127 76.7493C246.798 76.3446 246.564 75.8716 246.441 75.3649C246.319 74.8582 246.31 74.3305 246.417 73.8202L251.293 46.7842C251.443 45.9546 251.879 45.204 252.526 44.6634C253.173 44.1228 253.989 43.8267 254.832 43.8266H267.214Z" fill="#FFDB00"/>
<path d="M264.807 46.0552C265.093 44.5721 266.58 43.8266 268.062 43.8266H267.214C266.371 43.8267 265.555 44.1228 264.908 44.6634C264.262 45.204 263.825 45.9546 263.675 46.7842L258.8 73.8202C258.693 74.3305 258.701 74.8582 258.824 75.3649C258.946 75.8716 259.181 76.3446 259.509 76.7493C259.838 77.1541 260.253 77.4805 260.723 77.7047C261.194 77.9289 261.709 78.0453 262.23 78.0454H266.295C266.816 78.0453 267.331 77.9289 267.802 77.7047C268.272 77.4805 268.687 77.1541 269.016 76.7493C269.344 76.3446 269.579 75.8716 269.701 75.3649C269.824 74.8582 269.832 74.3305 269.725 73.8202L264.807 46.0552Z" fill="#EB7500"/>
<path d="M264.314 44.959V73.3476L268.236 77.4596" stroke="#FFDB00" stroke-width="5" stroke-miterlimit="10"/>
<path d="M260.353 77.5736L264.314 73.3476" stroke="#FFDB00" stroke-width="5" stroke-miterlimit="10"/>
<path d="M281.762 51.2312C281.033 51.3492 280.858 48.7148 280.858 48.7148C280.308 40.5576 283.842 34.8649 284.786 33.7207C285.374 33.0224 285.936 32.5742 286.43 32.6623C287.635 32.8785 288.132 37.5292 286.811 42.6384C285.862 46.3116 283.08 51.0189 281.762 51.2312Z" fill="#423C52"/>
<path d="M281.722 51.004L303.203 65.8706C305.597 67.2861 310.372 59.6314 310.133 51.4199C309.894 43.2085 306.899 36.6665 302.584 35.811L286.428 32.8762C286.428 32.8762 288.425 36.8042 286.4 43.0992C284.341 49.509 281.722 51.004 281.722 51.004Z" stroke="#423C52" stroke-width="5" stroke-linejoin="round"/>
<path d="M289.947 54.7896C290.488 54.7896 290.927 54.3509 290.927 53.8098C290.927 53.2686 290.488 52.8299 289.947 52.8299C289.406 52.8299 288.967 53.2686 288.967 53.8098C288.967 54.3509 289.406 54.7896 289.947 54.7896Z" fill="#DBE5E5"/>
<path d="M294.525 54.7896C295.066 54.7896 295.505 54.3509 295.505 53.8098C295.505 53.2686 295.066 52.8299 294.525 52.8299C293.984 52.8299 293.545 53.2686 293.545 53.8098C293.545 54.3509 293.984 54.7896 294.525 54.7896Z" fill="#DBE5E5"/>
<path d="M300.051 46.4248C300.593 46.4248 301.031 45.9861 301.031 45.445C301.031 44.9038 300.593 44.4651 300.051 44.4651C299.51 44.4651 299.072 44.9038 299.072 45.445C299.072 45.9861 299.51 46.4248 300.051 46.4248Z" fill="#DBE5E5"/>
<path d="M299.801 54.7896C300.343 54.7896 300.781 54.3509 300.781 53.8098C300.781 53.2686 300.343 52.8299 299.801 52.8299C299.26 52.8299 298.822 53.2686 298.822 53.8098C298.822 54.3509 299.26 54.7896 299.801 54.7896Z" fill="#DBE5E5"/>
<path d="M299.644 61.8679C300.185 61.8679 300.624 61.4292 300.624 60.888C300.624 60.3469 300.185 59.9082 299.644 59.9082C299.103 59.9082 298.664 60.3469 298.664 60.888C298.664 61.4292 299.103 61.8679 299.644 61.8679Z" fill="#DBE5E5"/>
<path d="M306.343 46.4248C306.884 46.4248 307.322 45.9861 307.322 45.445C307.322 44.9038 306.884 44.4651 306.343 44.4651C305.801 44.4651 305.363 44.9038 305.363 45.445C305.363 45.9861 305.801 46.4248 306.343 46.4248Z" fill="#DBE5E5"/>
<path d="M306.092 54.7896C306.634 54.7896 307.072 54.3509 307.072 53.8098C307.072 53.2686 306.634 52.8299 306.092 52.8299C305.551 52.8299 305.113 53.2686 305.113 53.8098C305.113 54.3509 305.551 54.7896 306.092 54.7896Z" fill="#DBE5E5"/>
<path d="M305.935 61.8679C306.476 61.8679 306.915 61.4292 306.915 60.888C306.915 60.3469 306.476 59.9082 305.935 59.9082C305.394 59.9082 304.955 60.3469 304.955 60.888C304.955 61.4292 305.394 61.8679 305.935 61.8679Z" fill="#DBE5E5"/>
<path d="M293.215 57.3399C293.216 57.5353 293.157 57.7264 293.048 57.8884C292.939 58.0505 292.783 58.176 292.602 58.2489L291.257 57.3281C291.265 57.073 291.373 56.8314 291.557 56.6546C291.741 56.4778 291.987 56.3797 292.242 56.3813C292.497 56.3828 292.741 56.4838 292.923 56.6628C293.105 56.8419 293.21 57.0848 293.215 57.3399Z" fill="#DBE5E5"/>
<path d="M296.814 58.5525C297.355 58.5525 297.794 58.1138 297.794 57.5726C297.794 57.0315 297.355 56.5928 296.814 56.5928C296.273 56.5928 295.834 57.0315 295.834 57.5726C295.834 58.1138 296.273 58.5525 296.814 58.5525Z" fill="#DBE5E5"/>
<path d="M303.051 42.0297C303.592 42.0297 304.031 41.591 304.031 41.0498C304.031 40.5087 303.592 40.07 303.051 40.07C302.51 40.07 302.071 40.5087 302.071 41.0498C302.071 41.591 302.51 42.0297 303.051 42.0297Z" fill="#DBE5E5"/>
<path d="M303.119 50.5313C303.66 50.5313 304.099 50.0926 304.099 49.5515C304.099 49.0103 303.66 48.5716 303.119 48.5716C302.578 48.5716 302.139 49.0103 302.139 49.5515C302.139 50.0926 302.578 50.5313 303.119 50.5313Z" fill="#DBE5E5"/>
<path d="M308.545 50.5313C309.086 50.5313 309.525 50.0926 309.525 49.5515C309.525 49.0103 309.086 48.5716 308.545 48.5716C308.004 48.5716 307.565 49.0103 307.565 49.5515C307.565 50.0926 308.004 50.5313 308.545 50.5313Z" fill="#DBE5E5"/>
<path d="M302.869 58.4738C303.41 58.4738 303.849 58.0351 303.849 57.494C303.849 56.9529 303.41 56.5142 302.869 56.5142C302.328 56.5142 301.889 56.9529 301.889 57.494C301.889 58.0351 302.328 58.4738 302.869 58.4738Z" fill="#DBE5E5"/>
<path d="M302.869 65.1581C303.41 65.1581 303.849 64.7194 303.849 64.1783C303.849 63.6371 303.41 63.1984 302.869 63.1984C302.328 63.1984 301.889 63.6371 301.889 64.1783C301.889 64.7194 302.328 65.1581 302.869 65.1581Z" fill="#DBE5E5"/>
<path d="M289.883 46.4248C290.424 46.4248 290.863 45.9861 290.863 45.445C290.863 44.9038 290.424 44.4651 289.883 44.4651C289.342 44.4651 288.903 44.9038 288.903 45.445C288.903 45.9861 289.342 46.4248 289.883 46.4248Z" fill="#DBE5E5"/>
<path d="M294.775 46.4248C295.316 46.4248 295.755 45.9861 295.755 45.445C295.755 44.9038 295.316 44.4651 294.775 44.4651C294.234 44.4651 293.795 44.9038 293.795 45.445C293.795 45.9861 294.234 46.4248 294.775 46.4248Z" fill="#DBE5E5"/>
<path d="M292.486 50.5313C293.028 50.5313 293.466 50.0926 293.466 49.5515C293.466 49.0103 293.028 48.5716 292.486 48.5716C291.945 48.5716 291.507 49.0103 291.507 49.5515C291.507 50.0926 291.945 50.5313 292.486 50.5313Z" fill="#DBE5E5"/>
<path d="M286.956 50.2813C287.497 50.2813 287.936 49.8426 287.936 49.3014C287.936 48.7603 287.497 48.3216 286.956 48.3216C286.415 48.3216 285.976 48.7603 285.976 49.3014C285.976 49.8426 286.415 50.2813 286.956 50.2813Z" fill="#DBE5E5"/>
<path d="M284.078 52.3439C284.246 52.1561 284.477 52.0357 284.728 52.0049C284.979 51.9741 285.232 52.035 285.441 52.1764C285.885 52.4855 285.992 53.0957 285.687 53.4614L284.078 52.3439Z" fill="#DBE5E5"/>
<path d="M297.379 50.5313C297.92 50.5313 298.358 50.0926 298.358 49.5515C298.358 49.0103 297.92 48.5716 297.379 48.5716C296.837 48.5716 296.399 49.0103 296.399 49.5515C296.399 50.0926 296.837 50.5313 297.379 50.5313Z" fill="#DBE5E5"/>
<path d="M289.736 38.0608C290.277 38.0608 290.715 37.6221 290.715 37.081C290.715 36.5398 290.277 36.1011 289.736 36.1011C289.194 36.1011 288.756 36.5398 288.756 37.081C288.756 37.6221 289.194 38.0608 289.736 38.0608Z" fill="#DBE5E5"/>
<path d="M294.707 38.0608C295.248 38.0608 295.687 37.6221 295.687 37.081C295.687 36.5398 295.248 36.1011 294.707 36.1011C294.166 36.1011 293.727 36.5398 293.727 37.081C293.727 37.6221 294.166 38.0608 294.707 38.0608Z" fill="#DBE5E5"/>
<path d="M300.051 38.1292C300.593 38.1292 301.031 37.6905 301.031 37.1494C301.031 36.6082 300.593 36.1695 300.051 36.1695C299.51 36.1695 299.072 36.6082 299.072 37.1494C299.072 37.6905 299.51 38.1292 300.051 38.1292Z" fill="#DBE5E5"/>
<path d="M292.418 42.0297C292.959 42.0297 293.398 41.591 293.398 41.0498C293.398 40.5087 292.959 40.07 292.418 40.07C291.877 40.07 291.438 40.5087 291.438 41.0498C291.438 41.591 291.877 42.0297 292.418 42.0297Z" fill="#DBE5E5"/>
<path d="M287.382 39.8884C287.511 39.9081 287.635 39.9534 287.746 40.0217C287.858 40.09 287.954 40.1799 288.031 40.2861C288.107 40.3923 288.161 40.5127 288.19 40.6401C288.219 40.7675 288.222 40.8994 288.199 41.0281C288.176 41.1568 288.128 41.2796 288.057 41.3893C287.986 41.499 287.894 41.5934 287.786 41.6669C287.678 41.7405 287.556 41.7917 287.428 41.8175C287.3 41.8433 287.168 41.8433 287.04 41.8174L287.382 39.8884Z" fill="#DBE5E5"/>
<path d="M296.996 42.0297C297.537 42.0297 297.975 41.591 297.975 41.0498C297.975 40.5087 297.537 40.07 296.996 40.07C296.454 40.07 296.016 40.5087 296.016 41.0498C296.016 41.591 296.454 42.0297 296.996 42.0297Z" fill="#DBE5E5"/>
<path d="M293.401 34.3648C293.378 34.4938 293.33 34.617 293.26 34.7273C293.189 34.8376 293.098 34.9328 292.99 35.0074C292.882 35.0819 292.761 35.1343 292.633 35.1615C292.505 35.1887 292.372 35.1902 292.244 35.1659C292.115 35.1415 291.992 35.0919 291.883 35.0198C291.774 34.9477 291.68 34.8546 291.607 34.7459C291.534 34.6372 291.483 34.515 291.458 34.3866C291.432 34.2581 291.433 34.1259 291.459 33.9975L293.401 34.3648Z" fill="#DBE5E5"/>
<path d="M286.497 42.1949C285.589 45.8476 284.173 48.832 282.913 50.01L280.544 48.4765L272.884 43.5176L271.933 45.5826C271.663 46.0333 271.283 46.4073 270.828 46.6689C270.373 46.9305 269.858 47.0709 269.334 47.0767L266.288 47.1161C266.206 47.1171 266.126 47.102 266.05 47.0716C265.975 47.0413 265.906 46.9962 265.848 46.9391C265.79 46.882 265.743 46.814 265.712 46.7389C265.68 46.6639 265.664 46.5833 265.663 46.5019C265.662 45.9895 265.809 45.4876 266.087 45.0574C266.366 44.6272 266.763 44.2873 267.232 44.079L268.051 43.7149L267.983 42.7249C267.982 42.3198 267.821 41.9313 267.535 41.645C267.248 41.3586 266.86 41.1977 266.455 41.1977H263.618C263.364 41.1976 263.115 41.2608 262.892 41.3815C262.668 41.5021 262.479 41.6766 262.34 41.889L261.239 45.7949C261.471 46.1105 261.636 46.4697 261.725 46.8508C261.814 47.2319 261.825 47.6271 261.758 48.0125L261.629 48.7423C261.615 48.8263 261.58 48.9052 261.527 48.9718C261.474 49.0383 261.405 49.0903 261.326 49.1227C261.247 49.1551 261.162 49.167 261.077 49.1571C260.993 49.1472 260.912 49.116 260.843 49.0663L254.496 44.6004C253.92 44.1732 253.502 43.5673 253.306 42.8774C253.111 42.1874 253.15 41.4521 253.416 40.7864L256.939 34.478C257.287 33.7241 257.827 33.0745 258.504 32.5939C259.181 32.1133 259.972 31.8186 260.799 31.7391L272.29 30.6302C273.047 30.6302 273.801 30.7262 274.534 30.9157L284.472 33.484L287.146 34.1745C287.514 35.9329 287.311 38.9227 286.497 42.1949Z" fill="white"/>
<path d="M257.682 38.4532L255.812 42.4976C255.545 43.1633 255.506 43.8985 255.702 44.5885C255.897 45.2785 256.315 45.8844 256.891 46.3116" stroke="#423C52" stroke-width="5" stroke-linecap="round" stroke-linejoin="round"/>
<path d="M260.012 40.0291L258.145 44.0743C257.878 44.74 257.84 45.4751 258.035 46.165C258.23 46.8549 258.648 47.4608 259.224 47.8883" stroke="#423C52" stroke-width="5" stroke-linecap="round" stroke-linejoin="round"/>
<path d="M272.746 43.4224L274.288 39.8923L279.498 47.7507L272.746 43.4224Z" fill="#423C52"/>
<g style="mix-blend-mode:multiply">
<path d="M286.497 42.1949C285.589 45.8476 284.173 48.832 282.913 50.01L280.544 48.4765C280.286 46.6828 280.518 43.9084 281.267 40.8942C282.085 37.6047 283.312 34.8563 284.472 33.4825L287.146 34.1729C287.514 35.9329 287.311 38.9227 286.497 42.1949Z" fill="#DBE5E5"/>
</g>
<path d="M286.497 42.1949C285.589 45.8476 284.173 48.832 282.913 50.01L280.544 48.4765L272.884 43.5176L271.933 45.5826C271.663 46.0333 271.283 46.4073 270.828 46.6689C270.373 46.9305 269.858 47.0709 269.334 47.0767L266.288 47.1161C266.206 47.1171 266.126 47.102 266.05 47.0716C265.975 47.0413 265.906 46.9962 265.848 46.9391C265.79 46.882 265.743 46.814 265.712 46.7389C265.68 46.6639 265.664 46.5833 265.663 46.5019C265.662 45.9895 265.809 45.4876 266.087 45.0574C266.366 44.6272 266.763 44.2873 267.232 44.079L268.051 43.7149L267.983 42.7249C267.982 42.3198 267.821 41.9313 267.535 41.645C267.248 41.3586 266.86 41.1977 266.455 41.1977H263.618C263.364 41.1976 263.115 41.2608 262.892 41.3815C262.668 41.5021 262.479 41.6766 262.34 41.889L261.239 45.7949C261.471 46.1105 261.636 46.4696 261.725 46.8508C261.814 47.2319 261.825 47.6271 261.758 48.0125L261.629 48.7423C261.615 48.8263 261.58 48.9052 261.527 48.9718C261.474 49.0383 261.405 49.0903 261.326 49.1227C261.247 49.1551 261.162 49.167 261.077 49.1571C260.993 49.1472 260.912 49.116 260.843 49.0663L254.496 44.6004C253.92 44.1732 253.502 43.5673 253.306 42.8774C253.111 42.1874 253.15 41.4521 253.416 40.7864L256.939 34.478C257.287 33.7241 257.827 33.0745 258.504 32.5939C259.181 32.1133 259.972 31.8186 260.799 31.7391L272.29 30.6302C273.047 30.6302 273.801 30.7262 274.534 30.9157L284.472 33.484L287.146 34.1745C287.514 35.9329 287.311 38.9227 286.497 42.1949Z" stroke="#423C52" stroke-width="5" stroke-linejoin="round"/>
<path d="M191.547 29.5977L201.72 44.6177L201.941 44.944C202.51 46.0969 201.695 48.0967 199.948 49.6568C198.202 51.217 196.123 51.8021 195.041 51.1069L194.742 50.8506L180.961 39.0548L191.547 29.5977Z" fill="white" stroke="#FE552F" stroke-width="6" stroke-linejoin="round"/>
<path d="M191.547 29.5977C193.205 31.4543 191.565 34.3884 188.642 36.9999C185.719 39.6115 182.619 40.9106 180.961 39.0548C179.303 37.1989 179.714 32.8887 182.637 30.2771C185.56 27.6655 189.889 27.741 191.547 29.5977Z" fill="white" stroke="#FE552F" stroke-width="6" stroke-linejoin="round"/>
<path d="M184.867 32.7769C185.605 32.1184 185.908 31.2553 185.545 30.8491C185.183 30.4429 184.291 30.6475 183.554 31.3059C182.816 31.9644 182.513 32.8275 182.876 33.2337C183.238 33.6399 184.13 33.4354 184.867 32.7769Z" fill="white" stroke="#FE552F" stroke-width="6" stroke-linejoin="round"/>
<path d="M194.56 43.4507L182.383 29.8163C181.831 29.1986 181.484 28.4249 181.391 27.602C181.297 26.7791 181.461 25.9473 181.86 25.2214L183.919 21.4806" stroke="#FE552F" stroke-width="6" stroke-linecap="round" stroke-linejoin="round"/>
<path d="M239.219 6.74687L235.269 9.57786L201.999 33.4408V36.5737C201.999 37.1569 201.856 37.731 201.582 38.2456C201.307 38.7602 200.911 39.1993 200.426 39.5243L196.031 42.4693L195.987 42.3906C195.661 41.8333 195.468 41.209 195.422 40.5655C195.375 39.922 195.477 39.2764 195.718 38.6781L196.83 37.0157L192.323 30.3471L191.694 29.4491C190.646 28.2789 188.248 27.7434 186.102 28.2176L203.616 9.52753L206.519 6.42917C210.658 4.50881 216.684 3.05478 223.623 3.05478C230.396 3.05714 236.525 4.85954 239.219 6.74687Z" fill="#A0505A"/>
<path d="M211.778 26.427L208.723 28.6187C201.542 25.9096 197.96 20.2712 196.468 17.1665L197.109 16.4816C198.994 18.7527 203.953 23.9184 211.778 26.427Z" fill="#423C52"/>
<path d="M183.895 46.1732C184.574 47.5753 186.618 48.5717 188.173 48.471L190.532 48.3137C190.661 48.3052 190.786 48.2701 190.901 48.2108C191.015 48.1515 191.116 48.0692 191.198 47.969C191.279 47.8688 191.338 47.7529 191.373 47.6286C191.407 47.5043 191.415 47.3743 191.397 47.2466L190.637 41.9125C190.58 41.5197 190.384 41.1604 190.084 40.9005C189.784 40.6405 189.4 40.4973 189.003 40.497H184.253C183.388 40.497 182.296 40.3398 181.5 39.8986C181.472 39.882 181.438 39.8749 181.405 39.8783C181.372 39.8818 181.341 39.8956 181.317 39.9177C181.292 39.9399 181.275 39.9693 181.268 40.0017C181.261 40.0342 181.265 40.068 181.278 40.0983L183.895 46.1732Z" fill="#A0505A"/>
<path d="M183.336 44.5218C184.085 46.0946 185.548 46.9785 187.261 46.8644L190.079 46.6922C190.679 46.6521 191.079 46.0364 190.994 45.4293" stroke="#423C52" stroke-width="5" stroke-linecap="round" stroke-linejoin="round"/>
<path d="M182.491 42.5558C183.315 44.1286 184.869 44.9401 186.755 44.8261L189.618 44.6539C190.278 44.6138 190.763 43.987 190.67 43.3807" stroke="#423C52" stroke-width="5" stroke-linecap="round" stroke-linejoin="round"/>
<path d="M181.451 40.0787C182.312 41.6515 184.166 42.8271 186.138 42.7131L189.132 42.5409C189.822 42.5008 190.328 41.9495 190.233 41.3424" stroke="#423C52" stroke-width="5" stroke-linecap="round" stroke-linejoin="round"/>
<path opacity="0.5" d="M240.242 9.52753H240.309L214.816 27.233C202.826 24.6222 196.541 15.4372 196.541 15.4372L201.855 9.52753C204.881 6.323 213.227 3.05792 223.624 3.05792C233.929 3.05714 242.739 7.22813 240.242 9.52753Z" fill="#FFDB00"/>
<path d="M214.814 27.233C202.824 24.6222 196.539 15.4372 196.539 15.4372L201.854 9.52753C204.881 6.323 213.226 3.05792 223.623 3.05792C234.021 3.05792 242.896 7.30441 240.168 9.58493L214.814 27.233Z" stroke="#FFDB00" stroke-width="5" stroke-miterlimit="10" stroke-linecap="round"/>
<path d="M198.261 13.5224V17.5329C198.115 17.3757 197.98 17.2223 197.853 17.0776V13.9753L198.261 13.5224Z" fill="#FFDB00"/>
<path d="M201.255 10.192V20.4198C201.116 20.301 200.981 20.1838 200.848 20.0682V10.645L201.255 10.192Z" fill="#FFDB00"/>
<path d="M204.249 7.6402V22.6916C204.111 22.5996 203.976 22.5076 203.842 22.414V7.90364C203.974 7.81635 204.11 7.72985 204.249 7.6402Z" fill="#FFDB00"/>
<path d="M207.244 6.10834V24.4736C207.107 24.4021 206.972 24.3297 206.837 24.2574V6.28606C206.971 6.2263 207.107 6.16705 207.244 6.10834Z" fill="#FFDB00"/>
<path d="M210.239 5.00583V25.8451C210.101 25.7908 209.965 25.7358 209.83 25.6807V5.13716L210.239 5.00583Z" fill="#FFDB00"/>
<path d="M213.233 4.19662V26.8446C213.096 26.8068 212.961 26.7659 212.825 26.729V4.29256C212.961 4.25875 213.096 4.22808 213.233 4.19662Z" fill="#FFDB00"/>
<path d="M216.228 3.62256V26.2524L215.82 26.5355V3.68862L216.048 3.65165L216.228 3.62256Z" fill="#FFDB00"/>
<path d="M219.222 3.25531V24.1732L218.815 24.4555V3.29384C218.949 3.27969 219.087 3.26711 219.222 3.25531Z" fill="#FFDB00"/>
<path d="M222.216 3.07916V22.0979L221.809 22.381V3.09096C221.944 3.08545 222.08 3.07916 222.216 3.07916Z" fill="#FFDB00"/>
<path d="M225.211 3.09017V20.0211L224.804 20.3034V3.07916C224.94 3.07916 225.076 3.08467 225.211 3.09017Z" fill="#FFDB00"/>
<path d="M228.209 3.32765V17.9419L227.801 18.225V3.28204C227.933 3.2962 228.07 3.31507 228.209 3.32765Z" fill="#FFDB00"/>
<path d="M231.198 3.79947V15.8674L231.063 15.9602L230.79 16.1497V3.72476C230.927 3.74599 231.063 3.77273 231.198 3.79947Z" fill="#FFDB00"/>
<path d="M234.194 4.53476V13.789L233.786 14.0728V4.41602C233.924 4.45481 234.06 4.49439 234.194 4.53476Z" fill="#FFDB00"/>
<path d="M237.188 5.62704V11.7121L236.78 11.9952V5.4501C236.92 5.5083 237.056 5.56728 237.188 5.62704Z" fill="#FFDB00"/>
<path d="M240.182 9.52676V9.61169L239.774 9.89558V9.52676H240.182Z" fill="#FFDB00"/>
<path d="M218.719 24.5208L218.131 24.9289H208.157C207.88 24.796 207.606 24.6592 207.342 24.5208H218.719Z" fill="#FFDB00"/>
<path d="M223.03 21.5262L222.442 21.9343H203.176C202.99 21.798 202.806 21.662 202.625 21.5262H223.03Z" fill="#FFDB00"/>
<path d="M227.34 18.5324L226.752 18.9406H199.626C199.483 18.8022 199.344 18.6661 199.212 18.5324H227.34Z" fill="#FFDB00"/>
<path d="M231.651 15.5379L231.199 15.8525L231.063 15.946H196.917C196.775 15.7628 196.673 15.6236 196.611 15.5379H231.651Z" fill="#FFDB00"/>
<path d="M235.961 12.5441L235.374 12.9514H198.774L199.141 12.5441H235.961Z" fill="#FFDB00"/>
<path d="M240.272 9.54956L240.182 9.61169L239.774 9.89557L239.685 9.95691H201.467L201.833 9.54956H240.272Z" fill="#FFDB00"/>
<path d="M239.519 6.96863H205.433C205.695 6.83127 205.965 6.69549 206.243 6.56128H238.943C239.153 6.69654 239.345 6.83232 239.519 6.96863Z" fill="#FFDB00"/>
<path d="M139.62 53.2506V72.2608C139.62 73.8729 136.783 75.1798 133.282 75.1798C129.782 75.1798 126.945 73.8729 126.945 72.2608V53.2506C126.945 49.8674 127.836 46.5438 129.527 43.6135L131.099 40.8926V35.6301C131.099 34.6612 132.078 33.8756 133.284 33.8756C134.49 33.8756 135.468 34.662 135.468 35.6301V40.8902L137.041 43.6111C138.731 46.5422 139.621 49.8668 139.62 53.2506Z" fill="white" stroke="#423C52" stroke-width="5" stroke-miterlimit="10"/>
<path d="M138.109 60.6309V63.6278" stroke="#423C52" stroke-width="5" stroke-miterlimit="10" stroke-linecap="round"/>
<path d="M135.527 43.6111C137.219 46.5419 138.109 49.8665 138.109 53.2506V57.9611" stroke="#423C52" stroke-width="5" stroke-miterlimit="10" stroke-linecap="round"/>
<path d="M133.282 36.9787C134.173 36.9787 134.894 36.3989 134.894 35.6835C134.894 34.9682 134.173 34.3884 133.282 34.3884C132.392 34.3884 131.67 34.9682 131.67 35.6835C131.67 36.3989 132.392 36.9787 133.282 36.9787Z" fill="#423C52"/>
<path d="M138.289 71.6521C138.289 72.9253 136.047 73.9578 133.282 73.9578C130.517 73.9578 128.275 72.9213 128.275 71.6521C128.275 70.3829 130.517 68.6261 133.282 68.6261C136.047 68.6261 138.289 70.3742 138.289 71.6521Z" fill="white" stroke="#423C52" stroke-width="5" stroke-miterlimit="10"/>
<path d="M144.201 29.1172V34.8846C144.201 35.6266 143.994 36.3539 143.603 36.9844C143.211 37.6149 142.652 38.1236 141.987 38.4532L135.539 41.6522C134.737 42.0501 133.9 41.1804 134.328 40.394L135.535 37.5064C135.715 37.0769 135.743 36.5989 135.614 36.1514L134.513 32.3768C134.366 32.113 134.151 31.8934 133.891 31.7405C133.63 31.5876 133.334 31.507 133.032 31.507H130.685C130.423 31.5069 130.164 31.5584 129.922 31.6586C129.679 31.7588 129.46 31.9057 129.274 32.0909C129.089 32.2761 128.942 32.4959 128.842 32.738C128.741 32.98 128.69 33.2394 128.69 33.5013V34.9027L129.796 35.5105C130.484 35.925 130.827 36.6681 130.827 37.471V38.5421H127.76C124.343 38.5421 122.497 36.7947 120.664 33.9102L116.647 27.5869C117.861 25.3024 121.902 22.9181 127.022 21.7031C129.37 21.1456 131.626 20.9097 133.584 20.9616L142.44 26.0637C142.976 26.3733 143.42 26.8185 143.73 27.3545C144.039 27.8905 144.201 28.4984 144.201 29.1172Z" fill="#FFDB00"/>
<path d="M139.691 39.4165C141.046 38.7442 141.904 37.5095 141.904 35.9965V32.0064" stroke="#423C52" stroke-width="5" stroke-linecap="round" stroke-linejoin="round"/>
<path d="M135.837 41.491C137.193 40.8187 138.792 38.9172 138.792 37.4018V33.414" stroke="#423C52" stroke-width="5" stroke-linecap="round" stroke-linejoin="round"/>
<path d="M130.776 15.7219C128.469 15.4553 125.54 15.681 122.46 16.4666C118.056 17.5888 114.473 19.5713 112.819 21.5781L104.282 8.09868C102.406 4.8454 108.874 2.51534 115.113 3.08625C120.047 3.53528 125.723 5.73323 127.032 8.62478L130.776 15.7219Z" fill="white" stroke="#FE552F" stroke-width="6" stroke-linejoin="round"/>
<path d="M106.688 4.16437V11.8678" stroke="#FE552F" stroke-width="6" stroke-linecap="round" stroke-linejoin="round"/>
<path d="M109.429 3.45663V16.1654" stroke="#FE552F" stroke-width="6" stroke-linecap="round" stroke-linejoin="round"/>
<path d="M112.171 3.06345V20.463" stroke="#FE552F" stroke-width="6" stroke-linecap="round" stroke-linejoin="round"/>
<path d="M114.912 3.14206V19.6869" stroke="#FE552F" stroke-width="6" stroke-linecap="round" stroke-linejoin="round"/>
<path d="M117.654 3.45663V18.1927" stroke="#FE552F" stroke-width="6" stroke-linecap="round" stroke-linejoin="round"/>
<path d="M120.395 4.24301V17.1704" stroke="#FE552F" stroke-width="6" stroke-linecap="round" stroke-linejoin="round"/>
<path d="M123.137 5.26532V16.3054" stroke="#FE552F" stroke-width="6" stroke-linecap="round" stroke-linejoin="round"/>
<path d="M125.879 7.15265V15.8336" stroke="#FE552F" stroke-width="6" stroke-linecap="round" stroke-linejoin="round"/>
<path d="M128.62 11.7271V15.6464" stroke="#FE552F" stroke-width="6" stroke-linecap="round" stroke-linejoin="round"/>
<path d="M133.577 20.9585C131.62 20.9073 129.363 21.1433 127.015 21.7008C121.896 22.9158 117.853 25.3001 116.639 27.5845L112.821 21.5742C114.472 19.5713 118.06 17.5888 122.463 16.4666C125.542 15.6802 128.471 15.4545 130.779 15.7219L133.529 20.9301L133.577 20.9585Z" fill="white" stroke="#FE552F" stroke-width="6" stroke-linejoin="round"/>
<path d="M129.159 19.1128C129.702 19.1128 130.142 18.6724 130.142 18.129C130.142 17.5857 129.702 17.1453 129.159 17.1453C128.615 17.1453 128.175 17.5857 128.175 18.129C128.175 18.6724 128.615 19.1128 129.159 19.1128Z" stroke="#FE552F" stroke-width="6" stroke-linecap="round" stroke-linejoin="round"/>
<path d="M74.2892 50.1122V71.6159C74.2894 72.2019 74.5223 72.7639 74.9366 73.1782C75.351 73.5926 75.9129 73.8255 76.4989 73.8257H73.9872C72.9256 73.8257 71.9075 73.404 71.1569 72.6533C70.4062 71.9026 69.9845 70.8845 69.9845 69.823V63.2488L69.5591 64.2711C69.256 64.9951 68.6835 65.573 67.9624 65.883C67.2414 66.1929 66.4281 66.2107 65.6942 65.9325C64.9603 65.6543 64.3631 65.1019 64.0287 64.3918C63.6943 63.6818 63.6488 62.8696 63.9018 62.1266L63.9804 61.8907C63.9804 62.2919 64.1398 62.6768 64.4236 62.9605C64.7073 63.2443 65.0922 63.4037 65.4934 63.4037H65.6507C66.0522 63.4037 66.4372 63.2442 66.7211 62.9603C67.005 62.6764 67.1645 62.2914 67.1645 61.8899V44.528C67.1645 43.4485 67.5933 42.4132 68.3567 41.6499C69.12 40.8865 70.1553 40.4577 71.2348 40.4577V36.2309H73.896V40.4569C74.3327 40.4564 74.7653 40.542 75.1689 40.7087C75.5726 40.8755 75.9394 41.1202 76.2484 41.4289C76.5574 41.7375 76.8026 42.1041 76.9698 42.5075C77.1371 42.911 77.2232 43.3434 77.2232 43.7802V51.67C77.2232 53.4968 77.4489 58.8898 80.11 58.8371C80.11 58.8371 79.8238 57.0339 81.6498 57.0678C84.3109 57.1165 84.0773 62.092 79.3771 62.125C74.7854 62.1573 74.1563 56.3223 74.2892 50.1122Z" fill="#FFDB00"/>
<path d="M69.8311 64.1924V44.2858C69.8311 43.6657 69.9761 43.0542 70.2545 42.5001C70.5329 41.946 70.937 41.4647 71.4346 41.0947" stroke="white" stroke-width="5" stroke-linecap="round" stroke-linejoin="round"/>
<path d="M79.8725 58.5194C79.8245 59.6864 81.8825 59.9821 81.8825 58.834" stroke="white" stroke-width="5" stroke-linecap="round" stroke-linejoin="round"/>
<path d="M49.9977 31.0069C49.9977 36.4582 48.3352 40.8824 46.2788 40.9272C44.2224 40.8824 42.56 36.4582 42.56 31.0069C42.56 25.5557 44.2224 21.1307 46.2788 21.0874C48.3352 21.1307 49.9977 25.5549 49.9977 31.0069Z" fill="#423C52"/>
<path d="M38.8742 40.751C36.8021 40.751 35.1224 36.3881 35.1224 31.0069C35.1224 25.6257 36.8029 21.262 38.8742 21.262H46.2065C44.1344 21.262 42.4546 25.6249 42.4546 31.0069C42.4546 36.3889 44.1344 40.751 46.2065 40.751H38.8742Z" fill="white" stroke="#423C52" stroke-width="5" stroke-miterlimit="10"/>
<path d="M38.8743 21.262C38.8743 21.262 37.8614 18.913 27.7925 18.2737C27.7925 18.2737 20.3949 21.9328 16.7414 30.5712C13.0776 39.2349 15.9967 44.2858 15.9967 44.2858C28.3705 45.0848 38.8743 40.7518 38.8743 40.7518" stroke="#423C52" stroke-width="5" stroke-linecap="round" stroke-linejoin="round"/>
<path d="M36.3067 23.9019C36.3067 23.9019 34.4193 22.8985 30.7296 22.7035" stroke="#423C52" stroke-width="5" stroke-linecap="round" stroke-linejoin="round"/>
<path d="M35.9087 25.0374H32.5949" stroke="#423C52" stroke-width="5" stroke-linecap="round" stroke-linejoin="round"/>
<path d="M35.6115 35.9698C34.6595 36.5013 33.6662 36.9552 32.6413 37.3271" stroke="#423C52" stroke-width="5" stroke-linecap="round" stroke-linejoin="round"/>
<path d="M29.7639 35.2652H35.499" stroke="#423C52" stroke-width="5" stroke-linecap="round" stroke-linejoin="round"/>
<path d="M82.5981 30.5626H80.239V34.2429C80.2391 34.417 80.2006 34.589 80.126 34.7464C80.0515 34.9038 79.9429 35.0426 79.808 35.1527L75.6669 38.6026C75.5321 38.7247 75.368 38.8099 75.1906 38.8498C75.0131 38.8897 74.8284 38.8831 74.6543 38.8306C74.4802 38.778 74.3226 38.6813 74.1969 38.5499C74.0712 38.4185 73.9816 38.2567 73.9369 38.0805L73.134 34.8736C72.9364 34.1649 72.5122 33.5404 71.926 33.0957C71.3399 32.6511 70.6242 32.4107 69.8885 32.4114H67.7126C67.2753 32.4113 66.8536 32.5744 66.5302 32.8688C66.2068 33.1632 66.0048 33.5677 65.9639 34.0031C65.923 34.4385 66.046 34.8736 66.309 35.2231C66.5719 35.5725 66.9558 35.8113 67.3855 35.8927L68.7373 36.1491C69.4736 36.289 70.1381 36.6815 70.616 37.2589C71.0939 37.8363 71.3553 38.5624 71.3551 39.3119H48.4713C46.8592 39.3119 44.5598 35.5782 44.1792 31.0085C43.7144 25.4181 44.7996 22.705 46.4117 22.705H65.804C66.5899 22.7048 67.3717 22.8176 68.1255 23.04L74.7162 24.7834C75.5686 25.0343 76.1686 25.3544 76.8968 25.8639L82.8773 29.5175C82.9841 29.579 83.0677 29.6741 83.115 29.7879C83.1622 29.9018 83.1706 30.0281 83.1388 30.1472C83.107 30.2663 83.0368 30.3716 82.939 30.4467C82.8412 30.5218 82.7214 30.5625 82.5981 30.5626Z" fill="#EB7500"/>
<path d="M75.7856 25.4165L79.4942 29.4884C79.8421 29.8704 80.035 30.3684 80.0353 30.885V34.1092" stroke="#423C52" stroke-width="5" stroke-linecap="round" stroke-linejoin="round"/>
<path d="M74.6187 28.1649L77.6399 31.5464C77.9882 31.9284 78.1812 32.4268 78.181 32.9438V36.164" stroke="#423C52" stroke-width="5" stroke-linecap="round" stroke-linejoin="round"/>
<path d="M72.6959 29.8108L75.718 33.1923C76.0658 33.5746 76.2587 34.0728 76.259 34.5897V37.8099" stroke="#423C52" stroke-width="5" stroke-linecap="round" stroke-linejoin="round"/>
</svg>
