<svg width="108" height="128" viewBox="0 0 108 128" fill="none" xmlns="http://www.w3.org/2000/svg">
<path d="M44.0915 46.9879C42.4715 47.8902 41.2541 49.1853 40.4393 50.8733C39.5771 52.515 39.1627 54.4557 39.1962 56.6954C39.2541 60.5683 40.5838 63.6589 43.1852 65.9673C45.74 68.276 49.1406 69.4099 53.3871 69.3689C57.9135 69.3253 61.4419 68.0779 63.9721 65.6267C66.455 63.1293 67.6644 59.7342 67.6002 55.4414C67.5563 52.5017 66.7727 50.0359 65.2494 48.0438C63.7254 46.0051 61.5565 44.5327 58.7427 43.6264L58.9698 58.8147L50.1502 58.8998L49.7609 32.8627L60.8904 32.7554C63.8902 33.6131 66.6894 35.1028 69.288 37.2245C71.886 39.2995 74.0027 41.9625 75.6381 45.2135C77.2735 48.4645 78.1219 52.1431 78.1833 56.2493C78.2559 61.1021 77.2708 65.4517 75.2281 69.2982C73.1381 73.0985 70.2192 76.0901 66.4715 78.273C62.723 80.4092 58.4223 81.5008 53.5691 81.5476C48.716 81.5944 44.3839 80.5862 40.5727 78.5229C36.7141 76.4134 33.7066 73.4789 31.5502 69.7196C29.3471 65.9608 28.2093 61.6549 28.1367 56.8021C28.0488 50.9228 29.3981 45.963 32.1847 41.9226C34.9705 37.8356 38.8735 35.1145 43.8938 33.7594L44.0915 46.9879Z" fill="#75B6AE"/>
<path d="M40.4054 19.9515C42.7599 27.0599 50.8246 31.4624 50.8246 31.4624C50.8246 31.4624 55.0719 24.3398 52.7174 17.2313C50.3629 10.1229 42.2982 5.72046 42.2982 5.72046C42.2982 5.72046 38.0508 12.8431 40.4054 19.9515Z" fill="#75B6AE"/>
<path d="M40.4054 19.9515C42.7599 27.0599 50.8246 31.4624 50.8246 31.4624C50.8246 31.4624 55.0719 24.3398 52.7174 17.2313C50.3629 10.1229 42.2982 5.72046 42.2982 5.72046C42.2982 5.72046 38.0508 12.8431 40.4054 19.9515Z" fill="#75B6AE"/>
<path d="M43.6344 18.5797C50.0959 23.6572 50.8851 31.4624 50.8851 31.4624C50.8851 31.4624 41.1983 31.0354 34.7369 25.958C28.2754 20.8805 27.4862 13.0753 27.4862 13.0753C27.4862 13.0753 37.173 13.5023 43.6344 18.5797Z" fill="#81C9C0"/>
<path d="M53.2942 4.6525C53.2692 7.20777 50.9995 9.25345 50.9995 9.25345C50.9995 9.25345 48.7704 7.15622 48.7955 4.60095C48.8205 2.04568 51.0902 0 51.0902 0C51.0902 0 53.3193 2.09723 53.2942 4.6525Z" fill="#81C9C0"/>
<path d="M61.8735 19.9515C59.519 27.0599 51.4542 31.4624 51.4542 31.4624C51.4542 31.4624 47.2069 24.3398 49.5614 17.2313C51.9159 10.1229 59.9807 5.72046 59.9807 5.72046C59.9807 5.72046 64.228 12.8431 61.8735 19.9515Z" fill="#75B6AE"/>
<path d="M58.2933 18.5797C51.6915 23.6572 50.8851 31.4624 50.8851 31.4624C50.8851 31.4624 60.7825 31.0354 67.3843 25.958C73.9862 20.8805 74.7926 13.0753 74.7926 13.0753C74.7926 13.0753 64.8952 13.5023 58.2933 18.5797Z" fill="#81C9C0"/>
<path d="M6.576 98.416C7.52 98.416 8.344 98.608 9.048 98.992C9.768 99.376 10.32 99.88 10.704 100.504V98.608H14.808V111.976C14.808 113.208 14.56 114.32 14.064 115.312C13.584 116.32 12.84 117.12 11.832 117.712C10.84 118.304 9.6 118.6 8.112 118.6C6.128 118.6 4.52 118.128 3.288 117.184C2.056 116.256 1.352 114.992 1.176 113.392H5.232C5.36 113.904 5.664 114.304 6.144 114.592C6.624 114.896 7.216 115.048 7.92 115.048C8.768 115.048 9.44 114.8 9.936 114.304C10.448 113.824 10.704 113.048 10.704 111.976V110.08C10.304 110.704 9.752 111.216 9.048 111.616C8.344 112 7.52 112.192 6.576 112.192C5.472 112.192 4.472 111.912 3.576 111.352C2.68 110.776 1.968 109.968 1.44 108.928C0.928 107.872 0.672 106.656 0.672 105.28C0.672 103.904 0.928 102.696 1.44 101.656C1.968 100.616 2.68 99.816 3.576 99.256C4.472 98.696 5.472 98.416 6.576 98.416ZM10.704 105.304C10.704 104.28 10.416 103.472 9.84 102.88C9.28 102.288 8.592 101.992 7.776 101.992C6.96 101.992 6.264 102.288 5.688 102.88C5.128 103.456 4.848 104.256 4.848 105.28C4.848 106.304 5.128 107.12 5.688 107.728C6.264 108.32 6.96 108.616 7.776 108.616C8.592 108.616 9.28 108.32 9.84 107.728C10.416 107.136 10.704 106.328 10.704 105.304ZM16.9611 105.28C16.9611 103.904 17.2171 102.696 17.7291 101.656C18.2571 100.616 18.9691 99.816 19.8651 99.256C20.7611 98.696 21.7611 98.416 22.8651 98.416C23.8091 98.416 24.6331 98.608 25.3371 98.992C26.0571 99.376 26.6091 99.88 26.9931 100.504V98.608H31.0971V112H26.9931V110.104C26.5931 110.728 26.0331 111.232 25.3131 111.616C24.6091 112 23.7851 112.192 22.8411 112.192C21.7531 112.192 20.7611 111.912 19.8651 111.352C18.9691 110.776 18.2571 109.968 17.7291 108.928C17.2171 107.872 16.9611 106.656 16.9611 105.28ZM26.9931 105.304C26.9931 104.28 26.7051 103.472 26.1291 102.88C25.5691 102.288 24.8811 101.992 24.0651 101.992C23.2491 101.992 22.5531 102.288 21.9771 102.88C21.4171 103.456 21.1371 104.256 21.1371 105.28C21.1371 106.304 21.4171 107.12 21.9771 107.728C22.5531 108.32 23.2491 108.616 24.0651 108.616C24.8811 108.616 25.5691 108.32 26.1291 107.728C26.7051 107.136 26.9931 106.328 26.9931 105.304ZM51.1541 98.464C52.8181 98.464 54.1381 98.968 55.1141 99.976C56.1061 100.984 56.6021 102.384 56.6021 104.176V112H52.5221V104.728C52.5221 103.864 52.2901 103.2 51.8261 102.736C51.3781 102.256 50.7541 102.016 49.9541 102.016C49.1541 102.016 48.5221 102.256 48.0581 102.736C47.6101 103.2 47.3861 103.864 47.3861 104.728V112H43.3061V104.728C43.3061 103.864 43.0741 103.2 42.6101 102.736C42.1621 102.256 41.5381 102.016 40.7381 102.016C39.9381 102.016 39.3061 102.256 38.8421 102.736C38.3941 103.2 38.1701 103.864 38.1701 104.728V112H34.0661V98.608H38.1701V100.288C38.5861 99.728 39.1301 99.288 39.8021 98.968C40.4741 98.632 41.2341 98.464 42.0821 98.464C43.0901 98.464 43.9861 98.68 44.7701 99.112C45.5701 99.544 46.1941 100.16 46.6421 100.96C47.1061 100.224 47.7381 99.624 48.5381 99.16C49.3381 98.696 50.2101 98.464 51.1541 98.464ZM63.5764 100.504C63.9764 99.88 64.5284 99.376 65.2324 98.992C65.9364 98.608 66.7604 98.416 67.7044 98.416C68.8084 98.416 69.8084 98.696 70.7044 99.256C71.6004 99.816 72.3044 100.616 72.8164 101.656C73.3444 102.696 73.6084 103.904 73.6084 105.28C73.6084 106.656 73.3444 107.872 72.8164 108.928C72.3044 109.968 71.6004 110.776 70.7044 111.352C69.8084 111.912 68.8084 112.192 67.7044 112.192C66.7764 112.192 65.9524 112 65.2324 111.616C64.5284 111.232 63.9764 110.736 63.5764 110.128V118.384H59.4724V98.608H63.5764V100.504ZM69.4324 105.28C69.4324 104.256 69.1444 103.456 68.5684 102.88C68.0084 102.288 67.3124 101.992 66.4804 101.992C65.6644 101.992 64.9684 102.288 64.3924 102.88C63.8324 103.472 63.5524 104.28 63.5524 105.304C63.5524 106.328 63.8324 107.136 64.3924 107.728C64.9684 108.32 65.6644 108.616 66.4804 108.616C67.2964 108.616 67.9924 108.32 68.5684 107.728C69.1444 107.12 69.4324 106.304 69.4324 105.28ZM74.9454 105.28C74.9454 103.904 75.2014 102.696 75.7134 101.656C76.2414 100.616 76.9534 99.816 77.8494 99.256C78.7454 98.696 79.7454 98.416 80.8494 98.416C81.7934 98.416 82.6174 98.608 83.3214 98.992C84.0414 99.376 84.5934 99.88 84.9774 100.504V98.608H89.0814V112H84.9774V110.104C84.5774 110.728 84.0174 111.232 83.2974 111.616C82.5934 112 81.7694 112.192 80.8254 112.192C79.7374 112.192 78.7454 111.912 77.8494 111.352C76.9534 110.776 76.2414 109.968 75.7134 108.928C75.2014 107.872 74.9454 106.656 74.9454 105.28ZM84.9774 105.304C84.9774 104.28 84.6894 103.472 84.1134 102.88C83.5534 102.288 82.8654 101.992 82.0494 101.992C81.2334 101.992 80.5374 102.288 79.9614 102.88C79.4014 103.456 79.1214 104.256 79.1214 105.28C79.1214 106.304 79.4014 107.12 79.9614 107.728C80.5374 108.32 81.2334 108.616 82.0494 108.616C82.8654 108.616 83.5534 108.32 84.1134 107.728C84.6894 107.136 84.9774 106.328 84.9774 105.304ZM100.283 98.464C101.819 98.464 103.051 98.976 103.979 100C104.907 101.008 105.371 102.4 105.371 104.176V112H101.291V104.728C101.291 103.832 101.059 103.136 100.595 102.64C100.131 102.144 99.5065 101.896 98.7225 101.896C97.9385 101.896 97.3145 102.144 96.8505 102.64C96.3865 103.136 96.1545 103.832 96.1545 104.728V112H92.0505V94.24H96.1545V100.408C96.5705 99.816 97.1385 99.344 97.8585 98.992C98.5785 98.64 99.3865 98.464 100.283 98.464Z" fill="#555555"/>
</svg>
